<svg width="18" height="18" viewBox="0 0 18 18" fill="none" xmlns="http://www.w3.org/2000/svg">
<path d="M5.95813 4.17303C4.08011 5.2353 2.8125 7.25083 2.8125 9.56243C2.8125 12.9797 5.58274 15.7499 9 15.7499C12.4173 15.7499 15.1875 12.9797 15.1875 9.56243C15.1875 6.44514 12.8823 3.86627 9.88353 3.43753" stroke="#F28700" stroke-linecap="round"/>
<path d="M10.6875 3.24994L10.6875 3.74994C10.877 3.74993 11.0501 3.64285 11.1348 3.47337C11.2194 3.30389 11.201 3.10112 11.0873 2.94965L10.6875 3.24994ZM8.68756 7.2498V7.7498C8.87701 7.7498 9.05019 7.64272 9.13485 7.47324C9.21952 7.30376 9.20112 7.10098 9.08734 6.9495L8.68756 7.2498ZM8.68774 5.74984C8.68774 4.64537 9.58306 3.75001 10.6875 3.74994L10.6875 2.74994C9.03074 2.75004 7.68774 4.0931 7.68774 5.74984H8.68774ZM9.08734 6.9495C8.8363 6.6153 8.68774 6.20064 8.68774 5.74984H7.68774C7.68774 6.42462 7.91113 7.04866 8.28778 7.55009L9.08734 6.9495ZM8.68756 6.7498H8.68756C8.68756 6.7498 8.68756 6.7498 8.68756 6.7498H8.68756H8.68756C8.68756 6.7498 8.68756 6.7498 8.68756 6.7498C8.68756 6.7498 8.68756 6.7498 8.68756 6.7498H8.68756C8.68756 6.7498 8.68756 6.7498 8.68756 6.7498C8.68756 6.7498 8.68756 6.7498 8.68756 6.7498H8.68756C8.68756 6.7498 8.68756 6.7498 8.68756 6.7498C8.68756 6.7498 8.68756 6.7498 8.68756 6.7498H8.68756C8.68755 6.7498 8.68755 6.7498 8.68755 6.7498C8.68755 6.7498 8.68755 6.7498 8.68755 6.7498H8.68755C8.68755 6.7498 8.68755 6.7498 8.68755 6.7498C8.68755 6.7498 8.68755 6.7498 8.68755 6.7498H8.68755H8.68755C8.68755 6.7498 8.68755 6.7498 8.68755 6.7498H8.68755H8.68755C8.68755 6.7498 8.68755 6.7498 8.68755 6.7498H8.68755H8.68755C8.68755 6.7498 8.68755 6.7498 8.68755 6.7498C8.68755 6.7498 8.68755 6.7498 8.68755 6.7498H8.68755C8.68755 6.7498 8.68755 6.7498 8.68755 6.7498C8.68755 6.7498 8.68755 6.7498 8.68755 6.7498H8.68755C8.68755 6.7498 8.68755 6.7498 8.68755 6.7498C8.68755 6.7498 8.68755 6.7498 8.68755 6.7498H8.68755C8.68755 6.7498 8.68755 6.7498 8.68755 6.7498C8.68755 6.7498 8.68755 6.7498 8.68755 6.7498H8.68755C8.68755 6.7498 8.68755 6.7498 8.68755 6.7498C8.68755 6.7498 8.68755 6.7498 8.68755 6.7498H8.68755H8.68755C8.68755 6.7498 8.68755 6.7498 8.68755 6.7498H8.68755H8.68755C8.68754 6.7498 8.68754 6.7498 8.68754 6.7498H8.68754H8.68754C8.68754 6.7498 8.68754 6.7498 8.68754 6.7498C8.68754 6.7498 8.68754 6.7498 8.68754 6.7498H8.68754C8.68754 6.7498 8.68754 6.7498 8.68754 6.7498C8.68754 6.7498 8.68754 6.7498 8.68754 6.7498H8.68754C8.68754 6.7498 8.68754 6.7498 8.68754 6.7498C8.68754 6.7498 8.68754 6.7498 8.68754 6.7498H8.68754C8.68754 6.7498 8.68754 6.7498 8.68754 6.7498C8.68754 6.7498 8.68754 6.7498 8.68754 6.7498H8.68754C8.68754 6.7498 8.68754 6.7498 8.68754 6.7498C8.68754 6.7498 8.68754 6.7498 8.68754 6.7498H8.68754H8.68754C8.68754 6.7498 8.68754 6.7498 8.68754 6.7498H8.68754H8.68754C8.68754 6.7498 8.68754 6.7498 8.68754 6.7498H8.68754H8.68754C8.68754 6.7498 8.68754 6.7498 8.68754 6.7498C8.68754 6.7498 8.68754 6.7498 8.68754 6.7498H8.68754C8.68754 6.7498 8.68754 6.7498 8.68754 6.7498C8.68754 6.7498 8.68754 6.7498 8.68754 6.7498H8.68754C8.68754 6.7498 8.68754 6.7498 8.68753 6.7498C8.68753 6.7498 8.68753 6.7498 8.68753 6.7498H8.68753C8.68753 6.7498 8.68753 6.7498 8.68753 6.7498C8.68753 6.7498 8.68753 6.7498 8.68753 6.7498H8.68753C8.68753 6.7498 8.68753 6.7498 8.68753 6.7498C8.68753 6.7498 8.68753 6.7498 8.68753 6.7498H8.68753H8.68753C8.68753 6.7498 8.68753 6.7498 8.68753 6.7498H8.68753H8.68753C8.68753 6.7498 8.68753 6.7498 8.68753 6.7498H8.68753H8.68753C8.68753 6.7498 8.68753 6.7498 8.68753 6.7498C8.68753 6.7498 8.68753 6.7498 8.68753 6.7498H8.68753C8.68753 6.7498 8.68753 6.7498 8.68753 6.7498C8.68753 6.7498 8.68753 6.7498 8.68753 6.7498H8.68753C8.68753 6.7498 8.68753 6.7498 8.68753 6.7498C8.68753 6.7498 8.68753 6.7498 8.68753 6.7498H8.68753C8.68753 6.7498 8.68753 6.7498 8.68753 6.7498C8.68753 6.7498 8.68753 6.7498 8.68753 6.7498H8.68753C8.68753 6.7498 8.68753 6.7498 8.68753 6.7498C8.68753 6.7498 8.68753 6.7498 8.68753 6.7498H8.68753C8.68753 6.7498 8.68753 6.7498 8.68753 6.7498C8.68753 6.7498 8.68753 6.7498 8.68752 6.7498H8.68752H8.68752C8.68752 6.7498 8.68752 6.7498 8.68752 6.7498H8.68752H8.68752C8.68752 6.7498 8.68752 6.7498 8.68752 6.7498C8.68752 6.7498 8.68752 6.7498 8.68752 6.7498H8.68752C8.68752 6.7498 8.68752 6.7498 8.68752 6.7498C8.68752 6.7498 8.68752 6.7498 8.68752 6.7498H8.68752C8.68752 6.7498 8.68752 6.7498 8.68752 6.7498C8.68752 6.7498 8.68752 6.7498 8.68752 6.7498H8.68752C8.68752 6.7498 8.68752 6.7498 8.68752 6.7498C8.68752 6.7498 8.68752 6.7498 8.68752 6.7498H8.68752C8.68752 6.7498 8.68752 6.7498 8.68752 6.7498C8.68752 6.7498 8.68752 6.7498 8.68752 6.7498H8.68752C8.68752 6.7498 8.68752 6.7498 8.68752 6.7498C8.68752 6.7498 8.68752 6.7498 8.68752 6.7498H8.68752H8.68752C8.68752 6.7498 8.68752 6.7498 8.68752 6.7498H8.68752H8.68752C8.68752 6.7498 8.68752 6.7498 8.68752 6.7498C8.68752 6.7498 8.68752 6.7498 8.68752 6.7498H8.68752C8.68752 6.7498 8.68752 6.7498 8.68752 6.7498C8.68752 6.7498 8.68752 6.7498 8.68751 6.7498H8.68751C8.68751 6.7498 8.68751 6.7498 8.68751 6.7498C8.68751 6.7498 8.68751 6.7498 8.68751 6.7498H8.68751C8.68751 6.7498 8.68751 6.7498 8.68751 6.7498C8.68751 6.7498 8.68751 6.7498 8.68751 6.7498H8.68751C8.68751 6.7498 8.68751 6.7498 8.68751 6.7498C8.68751 6.7498 8.68751 6.7498 8.68751 6.7498H8.68751C8.68751 6.7498 8.68751 6.7498 8.68751 6.7498C8.68751 6.7498 8.68751 6.7498 8.68751 6.7498H8.68751H8.68751C8.68751 6.7498 8.68751 6.7498 8.68751 6.7498H8.68751H8.68751C8.68751 6.7498 8.68751 6.7498 8.68751 6.7498C8.68751 6.7498 8.68751 6.7498 8.68751 6.7498H8.68751C8.68751 6.7498 8.68751 6.7498 8.68751 6.7498C8.68751 6.7498 8.68751 6.7498 8.68751 6.7498H8.68751C8.68751 6.7498 8.68751 6.7498 8.68751 6.7498C8.68751 6.7498 8.68751 6.7498 8.68751 6.7498H8.68751C8.68751 6.7498 8.68751 6.7498 8.68751 6.7498C8.68751 6.7498 8.68751 6.7498 8.68751 6.7498H8.68751C8.68751 6.7498 8.68751 6.7498 8.68751 6.7498C8.68751 6.7498 8.68751 6.7498 8.68751 6.7498H8.6875C8.6875 6.7498 8.6875 6.7498 8.6875 6.7498C8.6875 6.7498 8.6875 6.7498 8.6875 6.7498H8.6875H8.6875C8.6875 6.7498 8.6875 6.7498 8.6875 6.7498H8.6875H8.6875C8.6875 6.7498 8.6875 6.7498 8.6875 6.7498H8.6875H8.6875C8.6875 6.7498 8.6875 6.7498 8.6875 6.7498C8.6875 6.7498 8.6875 6.7498 8.6875 6.7498H8.6875C8.6875 6.7498 8.6875 6.7498 8.6875 6.7498C8.6875 6.7498 8.6875 6.7498 8.6875 6.7498H8.6875C8.6875 6.7498 8.6875 6.7498 8.6875 6.7498C8.6875 6.7498 8.6875 6.7498 8.6875 6.7498H8.6875C8.6875 6.7498 8.6875 6.7498 8.6875 6.7498C8.6875 6.7498 8.6875 6.7498 8.6875 6.7498H8.6875C8.6875 6.7498 8.6875 6.7498 8.6875 6.7498C8.6875 6.7498 8.6875 6.7498 8.6875 6.7498H8.6875H8.6875C8.6875 6.7498 8.6875 6.7498 8.6875 6.7498H8.6875H8.6875C8.6875 6.7498 8.6875 6.7498 8.6875 6.7498H8.68749H8.68749C8.68749 6.7498 8.68749 6.7498 8.68749 6.7498C8.68749 6.7498 8.68749 6.7498 8.68749 6.7498H8.68749C8.68749 6.7498 8.68749 6.7498 8.68749 6.7498C8.68749 6.7498 8.68749 6.7498 8.68749 6.7498H8.68749C8.68749 6.7498 8.68749 6.7498 8.68749 6.7498C8.68749 6.7498 8.68749 6.7498 8.68749 6.7498H8.68749C8.68749 6.7498 8.68749 6.7498 8.68749 6.7498C8.68749 6.7498 8.68749 6.7498 8.68749 6.7498H8.68749C8.68749 6.7498 8.68749 6.7498 8.68749 6.7498C8.68749 6.7498 8.68749 6.7498 8.68749 6.7498H8.68749H8.68749C8.68749 6.7498 8.68749 6.7498 8.68749 6.7498H8.68749H8.68749C8.68749 6.7498 8.68749 6.7498 8.68749 6.7498H8.68749H8.68749C8.68749 6.7498 8.68749 6.7498 8.68749 6.7498C8.68749 6.7498 8.68749 6.7498 8.68749 6.7498H8.68749C8.68749 6.7498 8.68749 6.7498 8.68749 6.7498C8.68749 6.7498 8.68749 6.7498 8.68749 6.7498H8.68749C8.68749 6.7498 8.68749 6.7498 8.68749 6.7498C8.68749 6.7498 8.68749 6.7498 8.68749 6.7498H8.68748C8.68748 6.7498 8.68748 6.7498 8.68748 6.7498C8.68748 6.7498 8.68748 6.7498 8.68748 6.7498H8.68748C8.68748 6.7498 8.68748 6.7498 8.68748 6.7498C8.68748 6.7498 8.68748 6.7498 8.68748 6.7498H8.68748H8.68748C8.68748 6.7498 8.68748 6.7498 8.68748 6.7498H8.68748H8.68748C8.68748 6.7498 8.68748 6.7498 8.68748 6.7498H8.68748H8.68748C8.68748 6.7498 8.68748 6.7498 8.68748 6.7498C8.68748 6.7498 8.68748 6.7498 8.68748 6.7498H8.68748C8.68748 6.7498 8.68748 6.7498 8.68748 6.7498C8.68748 6.7498 8.68748 6.7498 8.68748 6.7498H8.68748C8.68748 6.7498 8.68748 6.7498 8.68748 6.7498C8.68748 6.7498 8.68748 6.7498 8.68748 6.7498H8.68748C8.68748 6.7498 8.68748 6.7498 8.68748 6.7498C8.68748 6.7498 8.68748 6.7498 8.68748 6.7498H8.68748C8.68748 6.7498 8.68748 6.7498 8.68748 6.7498C8.68748 6.7498 8.68748 6.7498 8.68748 6.7498H8.68748H8.68748C8.68748 6.7498 8.68748 6.7498 8.68748 6.7498H8.68748H8.68747C8.68747 6.7498 8.68747 6.7498 8.68747 6.7498H8.68747H8.68747C8.68747 6.7498 8.68747 6.7498 8.68747 6.7498C8.68747 6.7498 8.68747 6.7498 8.68747 6.7498H8.68747C8.68747 6.7498 8.68747 6.7498 8.68747 6.7498C8.68747 6.7498 8.68747 6.7498 8.68747 6.7498H8.68747C8.68747 6.7498 8.68747 6.7498 8.68747 6.7498C8.68747 6.7498 8.68747 6.7498 8.68747 6.7498H8.68747C8.68747 6.7498 8.68747 6.7498 8.68747 6.7498C8.68747 6.7498 8.68747 6.7498 8.68747 6.7498H8.68747C8.68747 6.7498 8.68747 6.7498 8.68747 6.7498C8.68747 6.7498 8.68747 6.7498 8.68747 6.7498H8.68747H8.68747C8.68747 6.7498 8.68747 6.7498 8.68747 6.7498H8.68747H8.68747C8.68747 6.7498 8.68747 6.7498 8.68747 6.7498H8.68747H8.68747C8.68747 6.7498 8.68747 6.7498 8.68747 6.7498C8.68747 6.7498 8.68747 6.7498 8.68747 6.7498H8.68747C8.68747 6.7498 8.68747 6.7498 8.68747 6.7498C8.68747 6.7498 8.68747 6.7498 8.68747 6.7498H8.68747C8.68746 6.7498 8.68746 6.7498 8.68746 6.7498C8.68746 6.7498 8.68746 6.7498 8.68746 6.7498H8.68746C8.68746 6.7498 8.68746 6.7498 8.68746 6.7498C8.68746 6.7498 8.68746 6.7498 8.68746 6.7498H8.68746C8.68746 6.7498 8.68746 6.7498 8.68746 6.7498C8.68746 6.7498 8.68746 6.7498 8.68746 6.7498H8.68746H8.68746C8.68746 6.7498 8.68746 6.7498 8.68746 6.7498H8.68746H8.68746C8.68746 6.7498 8.68746 6.7498 8.68746 6.7498H8.68746H8.68746C8.68746 6.7498 8.68746 6.7498 8.68746 6.7498C8.68746 6.7498 8.68746 6.7498 8.68746 6.7498H8.68746C8.68746 6.7498 8.68746 6.7498 8.68746 6.7498C8.68746 6.7498 8.68746 6.7498 8.68746 6.7498H8.68746C8.68746 6.7498 8.68746 6.7498 8.68746 6.7498C8.68746 6.7498 8.68746 6.7498 8.68746 6.7498H8.68746C8.68746 6.7498 8.68746 6.7498 8.68746 6.7498C8.68746 6.7498 8.68746 6.7498 8.68746 6.7498H8.68746C8.68746 6.7498 8.68746 6.7498 8.68746 6.7498C8.68746 6.7498 8.68746 6.7498 8.68746 6.7498H8.68746H8.68746C8.68745 6.7498 8.68745 6.7498 8.68745 6.7498H8.68745H8.68745C8.68745 6.7498 8.68745 6.7498 8.68745 6.7498H8.68745H8.68745C8.68745 6.7498 8.68745 6.7498 8.68745 6.7498C8.68745 6.7498 8.68745 6.7498 8.68745 6.7498H8.68745C8.68745 6.7498 8.68745 6.7498 8.68745 6.7498C8.68745 6.7498 8.68745 6.7498 8.68745 6.7498H8.68745C8.68745 6.7498 8.68745 6.7498 8.68745 6.7498C8.68745 6.7498 8.68745 6.7498 8.68745 6.7498H8.68745C8.68745 6.7498 8.68745 6.7498 8.68745 6.7498C8.68745 6.7498 8.68745 6.7498 8.68745 6.7498H8.68745C8.68745 6.7498 8.68745 6.7498 8.68745 6.7498C8.68745 6.7498 8.68745 6.7498 8.68745 6.7498H8.68745C8.68745 6.7498 8.68745 6.7498 8.68745 6.7498C8.68745 6.7498 8.68745 6.7498 8.68745 6.7498H8.68745H8.68745C8.68745 6.7498 8.68745 6.7498 8.68745 6.7498H8.68745H8.68745C8.68745 6.7498 8.68745 6.7498 8.68745 6.7498C8.68745 6.7498 8.68745 6.7498 8.68745 6.7498H8.68745C8.68745 6.7498 8.68745 6.7498 8.68744 6.7498C8.68744 6.7498 8.68744 6.7498 8.68744 6.7498H8.68744C8.68744 6.7498 8.68744 6.7498 8.68744 6.7498C8.68744 6.7498 8.68744 6.7498 8.68744 6.7498H8.68744C8.68744 6.7498 8.68744 6.7498 8.68744 6.7498C8.68744 6.7498 8.68744 6.7498 8.68744 6.7498H8.68744C8.68744 6.7498 8.68744 6.7498 8.68744 6.7498C8.68744 6.7498 8.68744 6.7498 8.68744 6.7498H8.68744C8.68744 6.7498 8.68744 6.7498 8.68744 6.7498C8.68744 6.7498 8.68744 6.7498 8.68744 6.7498H8.68744H8.68744C8.68744 6.7498 8.68744 6.7498 8.68744 6.7498H8.68744H8.68744C8.68744 6.7498 8.68744 6.7498 8.68744 6.7498C8.68744 6.7498 8.68744 6.7498 8.68744 6.7498H8.68744C8.68744 6.7498 8.68744 6.7498 8.68744 6.7498C8.68744 6.7498 8.68744 6.7498 8.68744 6.7498H8.68744C8.68744 6.7498 8.68744 6.7498 8.68744 6.7498C8.68744 6.7498 8.68744 6.7498 8.68744 6.7498H8.68744C8.68744 6.7498 8.68744 6.7498 8.68744 6.7498C8.68744 6.7498 8.68744 6.7498 8.68744 6.7498H8.68744C8.68744 6.7498 8.68744 6.7498 8.68744 6.7498C8.68744 6.7498 8.68744 6.7498 8.68743 6.7498H8.68743C8.68743 6.7498 8.68743 6.7498 8.68743 6.7498C8.68743 6.7498 8.68743 6.7498 8.68743 6.7498H8.68743H8.68743C8.68743 6.7498 8.68743 6.7498 8.68743 6.7498H8.68743H8.68743C8.68743 6.7498 8.68743 6.7498 8.68743 6.7498C8.68743 6.7498 8.68743 6.7498 8.68743 6.7498H8.68743C8.68743 6.7498 8.68743 6.7498 8.68743 6.7498C8.68743 6.7498 8.68743 6.7498 8.68743 6.7498H8.68743C8.68743 6.7498 8.68743 6.7498 8.68743 6.7498C8.68743 6.7498 8.68743 6.7498 8.68743 6.7498H8.68743C8.68743 6.7498 8.68743 6.7498 8.68743 6.7498C8.68743 6.7498 8.68743 6.7498 8.68743 6.7498H8.68743C8.68743 6.7498 8.68743 6.7498 8.68743 6.7498C8.68743 6.7498 8.68743 6.7498 8.68743 6.7498H8.68743C8.68743 6.7498 8.68743 6.7498 8.68743 6.7498C8.68743 6.7498 8.68743 6.7498 8.68743 6.7498H8.68743H8.68743C8.68743 6.7498 8.68743 6.7498 8.68743 6.7498H8.68743H8.68743C8.68743 6.7498 8.68743 6.7498 8.68743 6.7498C8.68743 6.7498 8.68743 6.7498 8.68742 6.7498H8.68742C8.68742 6.7498 8.68742 6.7498 8.68742 6.7498C8.68742 6.7498 8.68742 6.7498 8.68742 6.7498H8.68742C8.68742 6.7498 8.68742 6.7498 8.68742 6.7498C8.68742 6.7498 8.68742 6.7498 8.68742 6.7498H8.68742C8.68742 6.7498 8.68742 6.7498 8.68742 6.7498C8.68742 6.7498 8.68742 6.7498 8.68742 6.7498H8.68742C8.68742 6.7498 8.68742 6.7498 8.68742 6.7498C8.68742 6.7498 8.68742 6.7498 8.68742 6.7498H8.68742C8.68742 6.7498 8.68742 6.7498 8.68742 6.7498C8.68742 6.7498 8.68742 6.7498 8.68742 6.7498H8.68742H8.68742C8.68742 6.7498 8.68742 6.7498 8.68742 6.7498H8.68742H8.68742C8.68742 6.7498 8.68742 6.7498 8.68742 6.7498H8.68742H8.68742C8.68742 6.7498 8.68742 6.7498 8.68742 6.7498C8.68742 6.7498 8.68742 6.7498 8.68742 6.7498H8.68742C8.68742 6.7498 8.68742 6.7498 8.68742 6.7498C8.68742 6.7498 8.68742 6.7498 8.68742 6.7498H8.68742C8.68742 6.7498 8.68742 6.7498 8.68742 6.7498C8.68742 6.7498 8.68742 6.7498 8.68742 6.7498H8.68741C8.68741 6.7498 8.68741 6.7498 8.68741 6.7498C8.68741 6.7498 8.68741 6.7498 8.68741 6.7498H8.68741C8.68741 6.7498 8.68741 6.7498 8.68741 6.7498C8.68741 6.7498 8.68741 6.7498 8.68741 6.7498H8.68741H8.68741C8.68741 6.7498 8.68741 6.7498 8.68741 6.7498H8.68741H8.68741C8.68741 6.7498 8.68741 6.7498 8.68741 6.7498H8.68741H8.68741C8.68741 6.7498 8.68741 6.7498 8.68741 6.7498C8.68741 6.7498 8.68741 6.7498 8.68741 6.7498H8.68741C8.68741 6.7498 8.68741 6.7498 8.68741 6.7498C8.68741 6.7498 8.68741 6.7498 8.68741 6.7498H8.68741C8.68741 6.7498 8.68741 6.7498 8.68741 6.7498C8.68741 6.7498 8.68741 6.7498 8.68741 6.7498H8.68741C8.68741 6.7498 8.68741 6.7498 8.68741 6.7498C8.68741 6.7498 8.68741 6.7498 8.68741 6.7498H8.68741C8.68741 6.7498 8.68741 6.7498 8.68741 6.7498C8.68741 6.7498 8.68741 6.7498 8.68741 6.7498H8.68741H8.68741C8.68741 6.7498 8.68741 6.7498 8.68741 6.7498H8.68741H8.6874C8.6874 6.7498 8.6874 6.7498 8.6874 6.7498H8.6874H8.6874C8.6874 6.7498 8.6874 6.7498 8.6874 6.7498C8.6874 6.7498 8.6874 6.7498 8.6874 6.7498H8.6874C8.6874 6.7498 8.6874 6.7498 8.6874 6.7498C8.6874 6.7498 8.6874 6.7498 8.6874 6.7498H8.6874C8.6874 6.7498 8.6874 6.7498 8.6874 6.7498C8.6874 6.7498 8.6874 6.7498 8.6874 6.7498H8.6874C8.6874 6.7498 8.6874 6.7498 8.6874 6.7498C8.6874 6.7498 8.6874 6.7498 8.6874 6.7498H8.6874C8.6874 6.7498 8.6874 6.7498 8.6874 6.7498C8.6874 6.7498 8.6874 6.7498 8.6874 6.7498H8.6874H8.6874C8.6874 6.7498 8.6874 6.7498 8.6874 6.7498H8.6874V7.7498H8.6874C8.6874 7.7498 8.6874 7.7498 8.6874 7.7498H8.6874H8.6874C8.6874 7.7498 8.6874 7.7498 8.6874 7.7498C8.6874 7.7498 8.6874 7.7498 8.6874 7.7498H8.6874C8.6874 7.7498 8.6874 7.7498 8.6874 7.7498C8.6874 7.7498 8.6874 7.7498 8.6874 7.7498H8.6874C8.6874 7.7498 8.6874 7.7498 8.6874 7.7498C8.6874 7.7498 8.6874 7.7498 8.6874 7.7498H8.6874C8.6874 7.7498 8.6874 7.7498 8.6874 7.7498C8.6874 7.7498 8.6874 7.7498 8.6874 7.7498H8.6874C8.6874 7.7498 8.6874 7.7498 8.6874 7.7498C8.6874 7.7498 8.6874 7.7498 8.6874 7.7498H8.6874H8.6874C8.6874 7.7498 8.6874 7.7498 8.6874 7.7498H8.68741H8.68741C8.68741 7.7498 8.68741 7.7498 8.68741 7.7498H8.68741H8.68741C8.68741 7.7498 8.68741 7.7498 8.68741 7.7498C8.68741 7.7498 8.68741 7.7498 8.68741 7.7498H8.68741C8.68741 7.7498 8.68741 7.7498 8.68741 7.7498C8.68741 7.7498 8.68741 7.7498 8.68741 7.7498H8.68741C8.68741 7.7498 8.68741 7.7498 8.68741 7.7498C8.68741 7.7498 8.68741 7.7498 8.68741 7.7498H8.68741C8.68741 7.7498 8.68741 7.7498 8.68741 7.7498C8.68741 7.7498 8.68741 7.7498 8.68741 7.7498H8.68741C8.68741 7.7498 8.68741 7.7498 8.68741 7.7498C8.68741 7.7498 8.68741 7.7498 8.68741 7.7498H8.68741H8.68741C8.68741 7.7498 8.68741 7.7498 8.68741 7.7498H8.68741H8.68741C8.68741 7.7498 8.68741 7.7498 8.68741 7.7498H8.68741H8.68741C8.68741 7.7498 8.68741 7.7498 8.68741 7.7498C8.68741 7.7498 8.68741 7.7498 8.68741 7.7498H8.68741C8.68741 7.7498 8.68741 7.7498 8.68741 7.7498C8.68741 7.7498 8.68741 7.7498 8.68741 7.7498H8.68742C8.68742 7.7498 8.68742 7.7498 8.68742 7.7498C8.68742 7.7498 8.68742 7.7498 8.68742 7.7498H8.68742C8.68742 7.7498 8.68742 7.7498 8.68742 7.7498C8.68742 7.7498 8.68742 7.7498 8.68742 7.7498H8.68742C8.68742 7.7498 8.68742 7.7498 8.68742 7.7498C8.68742 7.7498 8.68742 7.7498 8.68742 7.7498H8.68742H8.68742C8.68742 7.7498 8.68742 7.7498 8.68742 7.7498H8.68742H8.68742C8.68742 7.7498 8.68742 7.7498 8.68742 7.7498H8.68742H8.68742C8.68742 7.7498 8.68742 7.7498 8.68742 7.7498C8.68742 7.7498 8.68742 7.7498 8.68742 7.7498H8.68742C8.68742 7.7498 8.68742 7.7498 8.68742 7.7498C8.68742 7.7498 8.68742 7.7498 8.68742 7.7498H8.68742C8.68742 7.7498 8.68742 7.7498 8.68742 7.7498C8.68742 7.7498 8.68742 7.7498 8.68742 7.7498H8.68742C8.68742 7.7498 8.68742 7.7498 8.68742 7.7498C8.68742 7.7498 8.68742 7.7498 8.68742 7.7498H8.68742C8.68742 7.7498 8.68742 7.7498 8.68742 7.7498C8.68742 7.7498 8.68742 7.7498 8.68742 7.7498H8.68742C8.68743 7.7498 8.68743 7.7498 8.68743 7.7498C8.68743 7.7498 8.68743 7.7498 8.68743 7.7498H8.68743H8.68743C8.68743 7.7498 8.68743 7.7498 8.68743 7.7498H8.68743H8.68743C8.68743 7.7498 8.68743 7.7498 8.68743 7.7498C8.68743 7.7498 8.68743 7.7498 8.68743 7.7498H8.68743C8.68743 7.7498 8.68743 7.7498 8.68743 7.7498C8.68743 7.7498 8.68743 7.7498 8.68743 7.7498H8.68743C8.68743 7.7498 8.68743 7.7498 8.68743 7.7498C8.68743 7.7498 8.68743 7.7498 8.68743 7.7498H8.68743C8.68743 7.7498 8.68743 7.7498 8.68743 7.7498C8.68743 7.7498 8.68743 7.7498 8.68743 7.7498H8.68743C8.68743 7.7498 8.68743 7.7498 8.68743 7.7498C8.68743 7.7498 8.68743 7.7498 8.68743 7.7498H8.68743C8.68743 7.7498 8.68743 7.7498 8.68743 7.7498C8.68743 7.7498 8.68743 7.7498 8.68743 7.7498H8.68743H8.68743C8.68743 7.7498 8.68743 7.7498 8.68743 7.7498H8.68743H8.68743C8.68743 7.7498 8.68743 7.7498 8.68743 7.7498C8.68743 7.7498 8.68743 7.7498 8.68743 7.7498H8.68743C8.68744 7.7498 8.68744 7.7498 8.68744 7.7498C8.68744 7.7498 8.68744 7.7498 8.68744 7.7498H8.68744C8.68744 7.7498 8.68744 7.7498 8.68744 7.7498C8.68744 7.7498 8.68744 7.7498 8.68744 7.7498H8.68744C8.68744 7.7498 8.68744 7.7498 8.68744 7.7498C8.68744 7.7498 8.68744 7.7498 8.68744 7.7498H8.68744C8.68744 7.7498 8.68744 7.7498 8.68744 7.7498C8.68744 7.7498 8.68744 7.7498 8.68744 7.7498H8.68744C8.68744 7.7498 8.68744 7.7498 8.68744 7.7498C8.68744 7.7498 8.68744 7.7498 8.68744 7.7498H8.68744H8.68744C8.68744 7.7498 8.68744 7.7498 8.68744 7.7498H8.68744H8.68744C8.68744 7.7498 8.68744 7.7498 8.68744 7.7498C8.68744 7.7498 8.68744 7.7498 8.68744 7.7498H8.68744C8.68744 7.7498 8.68744 7.7498 8.68744 7.7498C8.68744 7.7498 8.68744 7.7498 8.68744 7.7498H8.68744C8.68744 7.7498 8.68744 7.7498 8.68744 7.7498C8.68744 7.7498 8.68744 7.7498 8.68744 7.7498H8.68744C8.68744 7.7498 8.68744 7.7498 8.68744 7.7498C8.68744 7.7498 8.68744 7.7498 8.68744 7.7498H8.68744C8.68744 7.7498 8.68744 7.7498 8.68744 7.7498C8.68745 7.7498 8.68745 7.7498 8.68745 7.7498H8.68745C8.68745 7.7498 8.68745 7.7498 8.68745 7.7498C8.68745 7.7498 8.68745 7.7498 8.68745 7.7498H8.68745H8.68745C8.68745 7.7498 8.68745 7.7498 8.68745 7.7498H8.68745H8.68745C8.68745 7.7498 8.68745 7.7498 8.68745 7.7498C8.68745 7.7498 8.68745 7.7498 8.68745 7.7498H8.68745C8.68745 7.7498 8.68745 7.7498 8.68745 7.7498C8.68745 7.7498 8.68745 7.7498 8.68745 7.7498H8.68745C8.68745 7.7498 8.68745 7.7498 8.68745 7.7498C8.68745 7.7498 8.68745 7.7498 8.68745 7.7498H8.68745C8.68745 7.7498 8.68745 7.7498 8.68745 7.7498C8.68745 7.7498 8.68745 7.7498 8.68745 7.7498H8.68745C8.68745 7.7498 8.68745 7.7498 8.68745 7.7498C8.68745 7.7498 8.68745 7.7498 8.68745 7.7498H8.68745C8.68745 7.7498 8.68745 7.7498 8.68745 7.7498C8.68745 7.7498 8.68745 7.7498 8.68745 7.7498H8.68745H8.68745C8.68745 7.7498 8.68745 7.7498 8.68745 7.7498H8.68745H8.68745C8.68745 7.7498 8.68745 7.7498 8.68746 7.7498H8.68746H8.68746C8.68746 7.7498 8.68746 7.7498 8.68746 7.7498C8.68746 7.7498 8.68746 7.7498 8.68746 7.7498H8.68746C8.68746 7.7498 8.68746 7.7498 8.68746 7.7498C8.68746 7.7498 8.68746 7.7498 8.68746 7.7498H8.68746C8.68746 7.7498 8.68746 7.7498 8.68746 7.7498C8.68746 7.7498 8.68746 7.7498 8.68746 7.7498H8.68746C8.68746 7.7498 8.68746 7.7498 8.68746 7.7498C8.68746 7.7498 8.68746 7.7498 8.68746 7.7498H8.68746C8.68746 7.7498 8.68746 7.7498 8.68746 7.7498C8.68746 7.7498 8.68746 7.7498 8.68746 7.7498H8.68746H8.68746C8.68746 7.7498 8.68746 7.7498 8.68746 7.7498H8.68746H8.68746C8.68746 7.7498 8.68746 7.7498 8.68746 7.7498H8.68746H8.68746C8.68746 7.7498 8.68746 7.7498 8.68746 7.7498C8.68746 7.7498 8.68746 7.7498 8.68746 7.7498H8.68746C8.68746 7.7498 8.68746 7.7498 8.68746 7.7498C8.68746 7.7498 8.68746 7.7498 8.68746 7.7498H8.68746C8.68746 7.7498 8.68746 7.7498 8.68746 7.7498C8.68746 7.7498 8.68746 7.7498 8.68747 7.7498H8.68747C8.68747 7.7498 8.68747 7.7498 8.68747 7.7498C8.68747 7.7498 8.68747 7.7498 8.68747 7.7498H8.68747C8.68747 7.7498 8.68747 7.7498 8.68747 7.7498C8.68747 7.7498 8.68747 7.7498 8.68747 7.7498H8.68747H8.68747C8.68747 7.7498 8.68747 7.7498 8.68747 7.7498H8.68747H8.68747C8.68747 7.7498 8.68747 7.7498 8.68747 7.7498H8.68747H8.68747C8.68747 7.7498 8.68747 7.7498 8.68747 7.7498C8.68747 7.7498 8.68747 7.7498 8.68747 7.7498H8.68747C8.68747 7.7498 8.68747 7.7498 8.68747 7.7498C8.68747 7.7498 8.68747 7.7498 8.68747 7.7498H8.68747C8.68747 7.7498 8.68747 7.7498 8.68747 7.7498C8.68747 7.7498 8.68747 7.7498 8.68747 7.7498H8.68747C8.68747 7.7498 8.68747 7.7498 8.68747 7.7498C8.68747 7.7498 8.68747 7.7498 8.68747 7.7498H8.68747C8.68747 7.7498 8.68747 7.7498 8.68747 7.7498C8.68747 7.7498 8.68747 7.7498 8.68747 7.7498H8.68747H8.68747C8.68747 7.7498 8.68747 7.7498 8.68747 7.7498H8.68748H8.68748C8.68748 7.7498 8.68748 7.7498 8.68748 7.7498H8.68748H8.68748C8.68748 7.7498 8.68748 7.7498 8.68748 7.7498C8.68748 7.7498 8.68748 7.7498 8.68748 7.7498H8.68748C8.68748 7.7498 8.68748 7.7498 8.68748 7.7498C8.68748 7.7498 8.68748 7.7498 8.68748 7.7498H8.68748C8.68748 7.7498 8.68748 7.7498 8.68748 7.7498C8.68748 7.7498 8.68748 7.7498 8.68748 7.7498H8.68748C8.68748 7.7498 8.68748 7.7498 8.68748 7.7498C8.68748 7.7498 8.68748 7.7498 8.68748 7.7498H8.68748C8.68748 7.7498 8.68748 7.7498 8.68748 7.7498C8.68748 7.7498 8.68748 7.7498 8.68748 7.7498H8.68748H8.68748C8.68748 7.7498 8.68748 7.7498 8.68748 7.7498H8.68748H8.68748C8.68748 7.7498 8.68748 7.7498 8.68748 7.7498H8.68748H8.68748C8.68748 7.7498 8.68748 7.7498 8.68748 7.7498C8.68748 7.7498 8.68748 7.7498 8.68748 7.7498H8.68748C8.68748 7.7498 8.68748 7.7498 8.68748 7.7498C8.68748 7.7498 8.68748 7.7498 8.68748 7.7498H8.68749C8.68749 7.7498 8.68749 7.7498 8.68749 7.7498C8.68749 7.7498 8.68749 7.7498 8.68749 7.7498H8.68749C8.68749 7.7498 8.68749 7.7498 8.68749 7.7498C8.68749 7.7498 8.68749 7.7498 8.68749 7.7498H8.68749C8.68749 7.7498 8.68749 7.7498 8.68749 7.7498C8.68749 7.7498 8.68749 7.7498 8.68749 7.7498H8.68749H8.68749C8.68749 7.7498 8.68749 7.7498 8.68749 7.7498H8.68749H8.68749C8.68749 7.7498 8.68749 7.7498 8.68749 7.7498H8.68749H8.68749C8.68749 7.7498 8.68749 7.7498 8.68749 7.7498C8.68749 7.7498 8.68749 7.7498 8.68749 7.7498H8.68749C8.68749 7.7498 8.68749 7.7498 8.68749 7.7498C8.68749 7.7498 8.68749 7.7498 8.68749 7.7498H8.68749C8.68749 7.7498 8.68749 7.7498 8.68749 7.7498C8.68749 7.7498 8.68749 7.7498 8.68749 7.7498H8.68749C8.68749 7.7498 8.68749 7.7498 8.68749 7.7498C8.68749 7.7498 8.68749 7.7498 8.68749 7.7498H8.68749C8.68749 7.7498 8.68749 7.7498 8.68749 7.7498C8.68749 7.7498 8.68749 7.7498 8.68749 7.7498H8.68749H8.6875C8.6875 7.7498 8.6875 7.7498 8.6875 7.7498H8.6875H8.6875C8.6875 7.7498 8.6875 7.7498 8.6875 7.7498H8.6875H8.6875C8.6875 7.7498 8.6875 7.7498 8.6875 7.7498C8.6875 7.7498 8.6875 7.7498 8.6875 7.7498H8.6875C8.6875 7.7498 8.6875 7.7498 8.6875 7.7498C8.6875 7.7498 8.6875 7.7498 8.6875 7.7498H8.6875C8.6875 7.7498 8.6875 7.7498 8.6875 7.7498C8.6875 7.7498 8.6875 7.7498 8.6875 7.7498H8.6875C8.6875 7.7498 8.6875 7.7498 8.6875 7.7498C8.6875 7.7498 8.6875 7.7498 8.6875 7.7498H8.6875C8.6875 7.7498 8.6875 7.7498 8.6875 7.7498C8.6875 7.7498 8.6875 7.7498 8.6875 7.7498H8.6875H8.6875C8.6875 7.7498 8.6875 7.7498 8.6875 7.7498H8.6875H8.6875C8.6875 7.7498 8.6875 7.7498 8.6875 7.7498H8.6875H8.6875C8.6875 7.7498 8.6875 7.7498 8.6875 7.7498C8.6875 7.7498 8.6875 7.7498 8.6875 7.7498H8.68751C8.68751 7.7498 8.68751 7.7498 8.68751 7.7498C8.68751 7.7498 8.68751 7.7498 8.68751 7.7498H8.68751C8.68751 7.7498 8.68751 7.7498 8.68751 7.7498C8.68751 7.7498 8.68751 7.7498 8.68751 7.7498H8.68751C8.68751 7.7498 8.68751 7.7498 8.68751 7.7498C8.68751 7.7498 8.68751 7.7498 8.68751 7.7498H8.68751C8.68751 7.7498 8.68751 7.7498 8.68751 7.7498C8.68751 7.7498 8.68751 7.7498 8.68751 7.7498H8.68751C8.68751 7.7498 8.68751 7.7498 8.68751 7.7498C8.68751 7.7498 8.68751 7.7498 8.68751 7.7498H8.68751H8.68751C8.68751 7.7498 8.68751 7.7498 8.68751 7.7498H8.68751H8.68751C8.68751 7.7498 8.68751 7.7498 8.68751 7.7498C8.68751 7.7498 8.68751 7.7498 8.68751 7.7498H8.68751C8.68751 7.7498 8.68751 7.7498 8.68751 7.7498C8.68751 7.7498 8.68751 7.7498 8.68751 7.7498H8.68751C8.68751 7.7498 8.68751 7.7498 8.68751 7.7498C8.68751 7.7498 8.68751 7.7498 8.68751 7.7498H8.68751C8.68751 7.7498 8.68751 7.7498 8.68751 7.7498C8.68751 7.7498 8.68751 7.7498 8.68751 7.7498H8.68751C8.68752 7.7498 8.68752 7.7498 8.68752 7.7498C8.68752 7.7498 8.68752 7.7498 8.68752 7.7498H8.68752C8.68752 7.7498 8.68752 7.7498 8.68752 7.7498C8.68752 7.7498 8.68752 7.7498 8.68752 7.7498H8.68752H8.68752C8.68752 7.7498 8.68752 7.7498 8.68752 7.7498H8.68752H8.68752C8.68752 7.7498 8.68752 7.7498 8.68752 7.7498C8.68752 7.7498 8.68752 7.7498 8.68752 7.7498H8.68752C8.68752 7.7498 8.68752 7.7498 8.68752 7.7498C8.68752 7.7498 8.68752 7.7498 8.68752 7.7498H8.68752C8.68752 7.7498 8.68752 7.7498 8.68752 7.7498C8.68752 7.7498 8.68752 7.7498 8.68752 7.7498H8.68752C8.68752 7.7498 8.68752 7.7498 8.68752 7.7498C8.68752 7.7498 8.68752 7.7498 8.68752 7.7498H8.68752C8.68752 7.7498 8.68752 7.7498 8.68752 7.7498C8.68752 7.7498 8.68752 7.7498 8.68752 7.7498H8.68752C8.68752 7.7498 8.68752 7.7498 8.68752 7.7498C8.68752 7.7498 8.68752 7.7498 8.68752 7.7498H8.68752H8.68752C8.68752 7.7498 8.68752 7.7498 8.68752 7.7498H8.68752H8.68752C8.68753 7.7498 8.68753 7.7498 8.68753 7.7498C8.68753 7.7498 8.68753 7.7498 8.68753 7.7498H8.68753C8.68753 7.7498 8.68753 7.7498 8.68753 7.7498C8.68753 7.7498 8.68753 7.7498 8.68753 7.7498H8.68753C8.68753 7.7498 8.68753 7.7498 8.68753 7.7498C8.68753 7.7498 8.68753 7.7498 8.68753 7.7498H8.68753C8.68753 7.7498 8.68753 7.7498 8.68753 7.7498C8.68753 7.7498 8.68753 7.7498 8.68753 7.7498H8.68753C8.68753 7.7498 8.68753 7.7498 8.68753 7.7498C8.68753 7.7498 8.68753 7.7498 8.68753 7.7498H8.68753C8.68753 7.7498 8.68753 7.7498 8.68753 7.7498C8.68753 7.7498 8.68753 7.7498 8.68753 7.7498H8.68753H8.68753C8.68753 7.7498 8.68753 7.7498 8.68753 7.7498H8.68753H8.68753C8.68753 7.7498 8.68753 7.7498 8.68753 7.7498H8.68753H8.68753C8.68753 7.7498 8.68753 7.7498 8.68753 7.7498C8.68753 7.7498 8.68753 7.7498 8.68753 7.7498H8.68753C8.68753 7.7498 8.68753 7.7498 8.68753 7.7498C8.68753 7.7498 8.68753 7.7498 8.68753 7.7498H8.68753C8.68753 7.7498 8.68753 7.7498 8.68753 7.7498C8.68754 7.7498 8.68754 7.7498 8.68754 7.7498H8.68754C8.68754 7.7498 8.68754 7.7498 8.68754 7.7498C8.68754 7.7498 8.68754 7.7498 8.68754 7.7498H8.68754C8.68754 7.7498 8.68754 7.7498 8.68754 7.7498C8.68754 7.7498 8.68754 7.7498 8.68754 7.7498H8.68754H8.68754C8.68754 7.7498 8.68754 7.7498 8.68754 7.7498H8.68754H8.68754C8.68754 7.7498 8.68754 7.7498 8.68754 7.7498H8.68754H8.68754C8.68754 7.7498 8.68754 7.7498 8.68754 7.7498C8.68754 7.7498 8.68754 7.7498 8.68754 7.7498H8.68754C8.68754 7.7498 8.68754 7.7498 8.68754 7.7498C8.68754 7.7498 8.68754 7.7498 8.68754 7.7498H8.68754C8.68754 7.7498 8.68754 7.7498 8.68754 7.7498C8.68754 7.7498 8.68754 7.7498 8.68754 7.7498H8.68754C8.68754 7.7498 8.68754 7.7498 8.68754 7.7498C8.68754 7.7498 8.68754 7.7498 8.68754 7.7498H8.68754C8.68754 7.7498 8.68754 7.7498 8.68754 7.7498C8.68754 7.7498 8.68754 7.7498 8.68754 7.7498H8.68754H8.68754C8.68754 7.7498 8.68754 7.7498 8.68755 7.7498H8.68755H8.68755C8.68755 7.7498 8.68755 7.7498 8.68755 7.7498H8.68755H8.68755C8.68755 7.7498 8.68755 7.7498 8.68755 7.7498C8.68755 7.7498 8.68755 7.7498 8.68755 7.7498H8.68755C8.68755 7.7498 8.68755 7.7498 8.68755 7.7498C8.68755 7.7498 8.68755 7.7498 8.68755 7.7498H8.68755C8.68755 7.7498 8.68755 7.7498 8.68755 7.7498C8.68755 7.7498 8.68755 7.7498 8.68755 7.7498H8.68755C8.68755 7.7498 8.68755 7.7498 8.68755 7.7498C8.68755 7.7498 8.68755 7.7498 8.68755 7.7498H8.68755C8.68755 7.7498 8.68755 7.7498 8.68755 7.7498C8.68755 7.7498 8.68755 7.7498 8.68755 7.7498H8.68755H8.68755C8.68755 7.7498 8.68755 7.7498 8.68755 7.7498H8.68755H8.68755C8.68755 7.7498 8.68755 7.7498 8.68755 7.7498H8.68755H8.68755C8.68755 7.7498 8.68755 7.7498 8.68755 7.7498C8.68755 7.7498 8.68755 7.7498 8.68755 7.7498H8.68755C8.68755 7.7498 8.68755 7.7498 8.68755 7.7498C8.68755 7.7498 8.68755 7.7498 8.68756 7.7498H8.68756C8.68756 7.7498 8.68756 7.7498 8.68756 7.7498C8.68756 7.7498 8.68756 7.7498 8.68756 7.7498H8.68756C8.68756 7.7498 8.68756 7.7498 8.68756 7.7498C8.68756 7.7498 8.68756 7.7498 8.68756 7.7498H8.68756C8.68756 7.7498 8.68756 7.7498 8.68756 7.7498C8.68756 7.7498 8.68756 7.7498 8.68756 7.7498H8.68756H8.68756C8.68756 7.7498 8.68756 7.7498 8.68756 7.7498H8.68756V6.7498ZM8.6874 6.7498C7.58288 6.7498 6.6875 5.85441 6.6875 4.7499H5.6875C5.6875 6.4067 7.0306 7.7498 8.6874 7.7498V6.7498ZM6.6875 4.7499C6.6875 3.64538 7.58288 2.75 8.6874 2.75V1.75C7.0306 1.75 5.6875 3.0931 5.6875 4.7499H6.6875ZM8.6874 2.75C9.34136 2.75 9.92199 3.06336 10.2877 3.55023L11.0873 2.94965C10.5408 2.22214 9.66917 1.75 8.6874 1.75V2.75Z" fill="#F28700"/>
<path d="M10.6875 9C10.6875 9 11.25 8.4375 12.0938 8.4375C12.9375 8.4375 13.5 9 13.5 9" stroke="#F28700" stroke-linecap="round" stroke-linejoin="round"/>
<path d="M5.0625 9C5.0625 9 5.625 8.4375 6.46875 8.4375C7.3125 8.4375 7.875 9 7.875 9" stroke="#F28700" stroke-linecap="round" stroke-linejoin="round"/>
<path d="M10.6875 12.375C10.6875 12.375 10.125 12.9375 9.28125 12.9375C8.4375 12.9375 7.875 12.375 7.875 12.375" stroke="#F28700" stroke-linecap="round" stroke-linejoin="round"/>
<rect x="15.1875" y="7.875" width="2.025" height="3.375" rx="1.0125" stroke="#F28700"/>
<rect x="0.787109" y="7.875" width="2.025" height="3.0375" rx="1.0125" stroke="#F28700"/>
</svg>
