<svg width="18" height="18" viewBox="0 0 18 18" fill="none" xmlns="http://www.w3.org/2000/svg">
<path d="M13.215 8.06251C12.8925 8.06251 12.6375 7.80001 12.6375 7.48501C12.6375 7.20751 12.36 6.63001 11.895 6.12751C11.4375 5.64001 10.935 5.35501 10.515 5.35501C10.1925 5.35501 9.9375 5.09251 9.9375 4.77751C9.9375 4.46251 10.2 4.20001 10.515 4.20001C11.265 4.20001 12.0525 4.60501 12.7425 5.33251C13.3875 6.01501 13.8 6.86251 13.8 7.47751C13.8 7.80001 13.5375 8.06251 13.215 8.06251Z" fill="white"/>
<path d="M15.9223 8.0625C15.5998 8.0625 15.3448 7.8 15.3448 7.485C15.3448 4.8225 13.1773 2.6625 10.5223 2.6625C10.1998 2.6625 9.94482 2.4 9.94482 2.085C9.94482 1.77 10.1998 1.5 10.5148 1.5C13.8148 1.5 16.4998 4.185 16.4998 7.485C16.4998 7.8 16.2373 8.0625 15.9223 8.0625Z" fill="white"/>
<path d="M7.2002 13.8L9.65269 11.3475C9.65269 11.3475 8.58 10.4325 8.28 10.14C8.2425 10.1025 8.20312 10.065 8.16375 10.0275C8.12437 9.99 8.085 9.9525 8.0475 9.915C7.6575 9.5175 7.2975 9.12 6.96 8.73C6.63 8.34 6.3975 8.0175 6.2625 7.77C6.25438 7.74564 6.24406 7.72128 6.23273 7.69453C6.22314 7.67188 6.21282 7.64752 6.2025 7.62C6.1875 7.56 6.18 7.5075 6.18 7.4475C6.18 7.3275 6.2175 7.23 6.3 7.1475L6.87 6.555C7.05 6.375 7.1925 6.195 7.29 6.0225C7.395 5.85 7.4475 5.67 7.4475 5.49C7.4475 5.3475 7.41 5.19 7.3425 5.0325C7.275 4.8675 7.1775 4.695 7.0425 4.5075L5.3025 2.055C5.1675 1.86 4.995 1.725 4.8 1.635C4.6125 1.545 4.4025 1.5 4.1925 1.5C3.6375 1.5 3.1125 1.7325 2.6325 2.205C2.235 2.58 1.95 3 1.77 3.4575C1.59 3.9075 1.5 4.395 1.5 4.905C1.5 5.685 1.68 6.5025 2.0325 7.3575C2.3925 8.205 2.8875 9.06 3.5025 9.915C4.125 10.77 4.8225 11.5875 5.595 12.3675C5.63625 12.4087 5.6775 12.4481 5.71874 12.4875C5.75999 12.5269 5.80125 12.5662 5.8425 12.6075C6.1425 12.8925 7.2002 13.8 7.2002 13.8Z" fill="white"/>
<path d="M16.3652 14.385C16.4402 14.175 16.4777 13.9575 16.4777 13.7475C16.4777 13.5375 16.4327 13.35 16.3577 13.1625C16.2752 12.975 16.1402 12.8175 15.9452 12.6825L13.4627 10.92C13.2752 10.7925 13.1027 10.695 12.9377 10.6275C12.7727 10.56 12.6227 10.53 12.4802 10.53C12.2927 10.53 12.1202 10.5825 11.9477 10.6875C11.7752 10.7775 11.5952 10.92 11.4077 11.1075L10.8377 11.67C10.7552 11.7525 10.6577 11.7975 10.5302 11.7975C10.4627 11.7975 10.4027 11.79 10.3427 11.7675C10.3186 11.7572 10.2961 11.7469 10.2752 11.7373C10.2505 11.726 10.228 11.7156 10.2077 11.7075C10.0502 11.625 9.86269 11.505 9.65269 11.3475L7.2002 13.8C7.4777 14.0325 7.7702 14.25 8.06269 14.4675C8.9177 15.09 9.78019 15.585 10.6427 15.9525C11.5052 16.32 12.3227 16.5 13.0877 16.5C13.6052 16.5 14.0852 16.4025 14.5277 16.2225C14.5314 16.2225 14.5352 16.2207 14.5389 16.2188C14.5427 16.2169 14.5464 16.215 14.5502 16.215C15.0077 16.0275 15.4127 15.735 15.7802 15.33C15.9977 15.09 16.1627 14.835 16.2902 14.565C16.3202 14.505 16.3427 14.445 16.3652 14.385Z" fill="white"/>
</svg>
