<svg width="250" height="70" viewBox="0 0 250 70" fill="none" xmlns="http://www.w3.org/2000/svg">
<mask id="mask0_46_727" style="mask-type:luminance" maskUnits="userSpaceOnUse" x="0" y="0" width="250" height="70">
<path d="M250 0H0V70H250V0Z" fill="white"/>
</mask>
<g mask="url(#mask0_46_727)">
<path fill-rule="evenodd" clip-rule="evenodd" d="M37.9917 2.32112H220.95C226.434 2.32112 231.7 3.98461 235.417 8.14336C238.567 11.7435 240.316 16.355 240.342 21.1353C240.342 27.7144 236.625 33.9275 231.583 37.9782C230.453 38.9019 229.221 39.6918 227.908 40.332C225.016 41.6123 221.904 42.324 218.741 42.428C214.1 42.7607 209.283 42.6609 204.625 42.6609H21.6667C16.1917 42.6609 10.925 40.9975 7.20833 36.8387C4.06574 33.2386 2.32638 28.6299 2.30833 23.8551C2.30833 17.2677 6.03333 11.0545 11.075 7.01217C12.2011 6.08756 13.4316 5.29757 14.7417 4.65833C17.6222 3.37839 20.7237 2.66665 23.875 2.56232C28.5167 2.2213 33.3333 2.32112 37.9917 2.32112ZM37.9917 0.0171704H220.95C227.108 0.0171704 232.983 1.94683 237.15 6.67116C240.674 10.6938 242.627 15.8499 242.65 21.1935C242.65 28.4797 238.616 35.3332 233.025 39.8329C231.762 40.8653 230.384 41.7474 228.917 42.4613C225.766 43.8757 222.37 44.6666 218.917 44.7902C214.167 45.1312 209.4 45.0314 204.634 45.0314H21.6667C15.5167 45.0314 9.63333 43.1017 5.475 38.3775C1.96186 34.35 0.01842 29.195 0 23.8551C0 16.5606 4.03333 9.71537 9.625 5.20728C10.893 4.17369 12.274 3.2864 13.7417 2.56232C16.8942 1.1534 20.2897 0.365447 23.7417 0.241742C28.4583 -0.0826394 33.2333 0.0171704 37.9917 0.0171704Z" fill="#F28700"/>
<path fill-rule="evenodd" clip-rule="evenodd" d="M37.9902 4.63213H220.948C225.724 4.63213 230.398 5.99619 233.682 9.70579C236.463 12.8811 238.007 16.9494 238.032 21.1673C238.032 26.8315 234.823 32.4458 230.132 36.2137C224.757 40.5305 219.716 40.3724 204.657 40.3724H21.6652C16.8985 40.3724 12.2152 39.0083 8.93187 35.3071C6.16978 32.1263 4.64127 28.063 4.62354 23.8539C4.62354 18.1897 7.82353 12.5421 12.4985 8.80751C17.8902 4.49072 22.9318 4.63213 37.9902 4.63213Z" fill="#F28700"/>
<path fill-rule="evenodd" clip-rule="evenodd" d="M65.8318 40.3807C70.6818 40.3807 73.5402 40.1229 76.8068 37.4779C81.6318 33.577 81.8902 29.9922 83.4068 23.9786C84.9235 18.6388 84.2402 13.5568 87.8402 8.6578C90.4985 4.9981 92.2151 4.63213 92.6068 4.63213H37.9902C22.9318 4.63213 17.8902 4.49074 12.5235 8.79088C7.82352 12.5421 4.62354 18.1897 4.62354 23.8539C4.64852 28.07 6.18918 32.1372 8.96519 35.3154C12.2485 39.0166 16.9318 40.3807 21.6985 40.3807H65.8318Z" fill="#008370"/>
<path d="M65.8318 40.3807C70.6818 40.3807 73.5402 40.1229 76.8068 37.4779C81.6318 33.577 81.8901 29.9922 83.4068 23.9786C84.9235 18.6388 84.2402 13.5568 87.8402 8.6578C90.4985 4.9981 92.2152 4.63213 92.6068 4.63213H37.9902C22.9318 4.63213 17.8902 4.49074 12.5235 8.79088C7.82352 12.5421 4.62354 18.1897 4.62354 23.8539C4.64852 28.07 6.18918 32.1372 8.96519 35.3154C12.2485 39.0166 16.9318 40.3807 21.6985 40.3807H65.8318Z" stroke="#008370" stroke-width="0.111166" stroke-linecap="round" stroke-linejoin="round"/>
<path fill-rule="evenodd" clip-rule="evenodd" d="M75.3742 19.4796H76.2659C76.7601 19.4533 77.2353 19.2811 77.6314 18.985C78.0275 18.6889 78.3266 18.282 78.4909 17.8161L78.7492 16.8763C78.9073 16.3684 79.2237 15.9242 79.6525 15.6085C80.0812 15.2928 80.5998 15.1221 81.1325 15.1212H82.0825C82.3105 15.1068 82.5384 15.148 82.7469 15.2412C82.9553 15.3342 83.1379 15.4766 83.279 15.6559C83.4201 15.8351 83.5154 16.0459 83.5567 16.2701C83.5978 16.4944 83.5839 16.7252 83.5159 16.9427L83.3325 17.6248C83.2635 17.8386 83.2476 18.0657 83.2858 18.287C83.3242 18.5083 83.4156 18.7171 83.5524 18.8953C83.6893 19.0736 83.8673 19.2161 84.0714 19.3105C84.2755 19.4051 84.4994 19.4488 84.7242 19.438H85.4325C85.6598 19.4292 85.8861 19.4755 86.0916 19.573C86.2971 19.6703 86.4759 19.8162 86.6127 19.9976C86.7496 20.1791 86.8402 20.3909 86.877 20.615C86.9139 20.8391 86.8958 21.0689 86.8242 21.2844L86.5909 22.2078C86.4546 22.7222 86.157 23.1796 85.7417 23.5133C85.3264 23.8469 84.8151 24.0394 84.2825 24.0625H83.3325C82.853 24.0975 82.3931 24.2667 82.0054 24.5505C81.6178 24.8345 81.3182 25.2217 81.1409 25.6678L80.9075 26.6825C80.748 27.1889 80.4309 27.6311 80.0023 27.9452C79.5737 28.2594 79.0559 28.4289 78.5242 28.4293H77.5742C77.3458 28.4456 77.1167 28.4058 76.9072 28.3134C76.6977 28.2208 76.5141 28.0784 76.3726 27.8986C76.2312 27.7188 76.136 27.507 76.0956 27.2819C76.0552 27.0568 76.0708 26.8254 76.1409 26.6076L76.3159 25.9589C76.3937 25.7421 76.4163 25.5094 76.3817 25.2816C76.3471 25.054 76.2562 24.8384 76.1173 24.6545C75.9785 24.4704 75.796 24.3239 75.5862 24.2277C75.3765 24.1317 75.1461 24.0892 74.9159 24.1041H74.2242C73.9959 24.1134 73.7687 24.0671 73.5622 23.9693C73.3558 23.8714 73.1764 23.7248 73.0394 23.5422C72.9024 23.3596 72.8119 23.1465 72.7759 22.9213C72.7399 22.6961 72.7594 22.4654 72.8325 22.2493L73.0575 21.3261C73.2027 20.8157 73.504 20.3633 73.9194 20.0323C74.3347 19.7012 74.8434 19.508 75.3742 19.4796Z" fill="#F28700"/>
<path d="M75.3742 19.4796H76.2659C76.7601 19.4533 77.2353 19.2811 77.6314 18.985C78.0275 18.6889 78.3266 18.282 78.4909 17.8161L78.7492 16.8763C78.9073 16.3684 79.2237 15.9242 79.6525 15.6085C80.0812 15.2928 80.5998 15.1221 81.1325 15.1212H82.0825C82.3105 15.1068 82.5384 15.148 82.7469 15.2412C82.9553 15.3342 83.1379 15.4766 83.279 15.6559C83.4201 15.8351 83.5154 16.0459 83.5567 16.2701C83.5978 16.4944 83.5839 16.7252 83.5159 16.9427L83.3325 17.6248C83.2635 17.8386 83.2476 18.0657 83.2858 18.287C83.3242 18.5083 83.4156 18.7171 83.5524 18.8953C83.6893 19.0736 83.8673 19.2161 84.0714 19.3105C84.2755 19.4051 84.4994 19.4488 84.7242 19.438H85.4325C85.6598 19.4292 85.8861 19.4755 86.0916 19.573C86.2971 19.6703 86.4759 19.8162 86.6127 19.9976C86.7496 20.1791 86.8402 20.3909 86.877 20.615C86.9139 20.8391 86.8958 21.0689 86.8242 21.2844L86.5909 22.2078C86.4546 22.7222 86.157 23.1796 85.7417 23.5133C85.3264 23.8469 84.8151 24.0394 84.2825 24.0625H83.3325C82.853 24.0975 82.3931 24.2667 82.0054 24.5505C81.6178 24.8345 81.3182 25.2217 81.1409 25.6678L80.9075 26.6825C80.748 27.1889 80.4309 27.6311 80.0023 27.9452C79.5737 28.2594 79.0559 28.4289 78.5242 28.4293H77.5742C77.3458 28.4456 77.1167 28.4058 76.9072 28.3134C76.6977 28.2208 76.5141 28.0784 76.3726 27.8986C76.2312 27.7188 76.136 27.507 76.0956 27.2819C76.0552 27.0568 76.0708 26.8254 76.1409 26.6076L76.3159 25.9589C76.3937 25.7421 76.4163 25.5094 76.3817 25.2816C76.3471 25.054 76.2562 24.8384 76.1173 24.6545C75.9785 24.4704 75.796 24.3239 75.5862 24.2277C75.3765 24.1317 75.1461 24.0892 74.9159 24.1041H74.2242C73.9959 24.1134 73.7687 24.0671 73.5622 23.9693C73.3558 23.8714 73.1764 23.7248 73.0394 23.5422C72.9024 23.3596 72.8119 23.1465 72.7759 22.9213C72.7399 22.6961 72.7594 22.4654 72.8325 22.2493L73.0575 21.3261C73.2027 20.8157 73.504 20.3633 73.9194 20.0323C74.3347 19.7012 74.8434 19.508 75.3742 19.4796Z" stroke="#F28700" stroke-width="0.717525"/>
<path fill-rule="evenodd" clip-rule="evenodd" d="M215.447 56.2098C215.164 56.2098 215.114 56.3762 214.989 56.5508L212.039 60.7844C211.706 61.2752 210.798 62.8139 210.556 63.2215H210.498C210.906 61.3167 210.69 62.5727 210.998 61.0257L211.914 56.6257C211.924 56.5511 211.924 56.4757 211.914 56.4011C211.914 56.2347 211.84 56.2015 211.681 56.2015H210.156C209.906 56.2015 209.906 56.3179 209.873 56.4344L207.748 66.9394C207.742 67.0141 207.742 67.0892 207.748 67.164C207.748 67.322 207.831 67.3635 207.982 67.3635H209.431C209.648 67.3635 209.715 67.297 209.857 67.0808L213.015 62.4479C213.487 61.7779 213.911 61.0746 214.281 60.3435H214.348C214.223 60.8177 214.031 61.6162 213.94 62.057L212.931 66.9726C212.925 67.0473 212.925 67.1224 212.931 67.1972C212.931 67.3552 213.015 67.3968 213.173 67.3968H214.697C214.947 67.3968 214.947 67.2804 214.982 67.164L217.098 56.6257C217.103 56.5509 217.103 56.4758 217.098 56.4011C217.098 56.2347 217.015 56.2015 216.857 56.2015L215.447 56.2098ZM205.265 56.2098C204.982 56.2098 204.931 56.3762 204.806 56.5508L201.857 60.7844C201.523 61.2752 200.607 62.8139 200.373 63.2215H200.315C200.723 61.3167 200.506 62.5727 200.815 61.0257L201.732 56.6008C201.74 56.5261 201.74 56.4508 201.732 56.3762C201.732 56.2098 201.656 56.1765 201.498 56.1765H199.998C199.748 56.1765 199.748 56.293 199.715 56.4094L197.565 66.9394C197.558 67.0141 197.558 67.0892 197.565 67.164C197.565 67.322 197.648 67.3635 197.798 67.3635H199.248C199.465 67.3635 199.531 67.297 199.673 67.0808L202.822 62.4479C203.302 61.7801 203.727 61.0766 204.098 60.3435H204.164C204.039 60.8177 203.848 61.6162 203.756 62.057L202.748 66.9394C202.742 67.0141 202.742 67.0892 202.748 67.164C202.748 67.322 202.831 67.3635 202.989 67.3635H204.506C204.765 67.3635 204.765 67.2471 204.789 67.1306L206.914 56.6257C206.919 56.5509 206.919 56.4758 206.914 56.4011C206.914 56.2347 206.831 56.2015 206.673 56.2015L205.265 56.2098ZM192.215 61.142L192.864 57.9647H193.697C193.863 57.9387 194.031 57.9496 194.19 57.9964C194.351 58.0432 194.498 58.1249 194.623 58.2355C194.746 58.346 194.844 58.483 194.909 58.636C194.974 58.7891 195.005 58.9548 194.998 59.1209C194.998 59.6782 194.857 61.1088 192.715 61.1088L192.215 61.142ZM191.381 56.2098C191.131 56.2098 191.131 56.3262 191.107 56.4427L188.982 66.9394C188.974 67.0141 188.974 67.0892 188.982 67.164C188.982 67.322 189.065 67.3635 189.223 67.3635H190.739C190.998 67.3635 190.998 67.2471 191.023 67.1306L191.857 62.9054H192.69C195.381 62.9054 197.031 61.2418 197.031 58.8464C197.031 56.451 195.364 56.2098 194.265 56.2098H191.381ZM182.631 56.2098C182.381 56.2098 182.381 56.3262 182.348 56.4427L180.232 66.9394C180.224 67.0141 180.224 67.0892 180.232 67.164C180.232 67.322 180.306 67.3635 180.465 67.3635H185.681C185.931 67.3635 185.931 67.2471 185.965 67.1306L186.232 65.8248C186.232 65.6501 186.031 65.6501 185.965 65.6501H182.59L183.248 62.3813H185.947C186.156 62.3813 186.19 62.3813 186.232 62.1484L186.473 60.9591C186.473 60.8676 186.531 60.6679 186.265 60.6679H183.607L184.173 57.9232H187.256C187.364 57.9232 187.473 57.9232 187.581 57.7069L188.148 56.5508C188.183 56.4919 188.205 56.427 188.215 56.3595C188.215 56.1932 188.056 56.2098 187.947 56.2098H182.631ZM177.739 58.0813H179.69C179.798 58.0813 179.906 58.0813 180.023 57.8733L180.648 56.5508C180.675 56.4949 180.697 56.4364 180.715 56.3762V56.3262C180.715 56.1932 180.539 56.2098 180.44 56.2098H174.015C173.732 56.2098 173.765 56.3096 173.732 56.4427L173.465 57.6571C173.456 57.74 173.456 57.8236 173.465 57.9066C173.465 58.0979 173.623 58.0813 173.732 58.0813H175.739L173.906 66.9394C173.893 67.0137 173.893 67.0896 173.906 67.164C173.906 67.322 173.982 67.3635 174.14 67.3635H175.664C175.914 67.3635 175.914 67.2471 175.947 67.1306L177.739 58.0813ZM165.423 56.2098C165.298 56.2098 165.107 56.2098 165.048 56.5342L162.89 67.0308C162.831 67.3469 163.023 67.3635 163.14 67.3635H164.572C164.906 67.3635 164.923 67.164 164.947 67.0308L165.898 62.4479H166.806C167.781 62.4479 167.798 63.055 167.798 63.5458V65.5004C167.798 66.4569 167.923 67.164 168.739 67.4633C169.058 67.5797 169.392 67.6416 169.732 67.6464C169.914 67.6464 170.072 67.6464 170.164 67.4052L170.706 66.1658C170.815 65.9163 170.706 65.8581 170.607 65.8331L170.164 65.7416C169.697 65.6418 169.697 65.2176 169.697 64.652V63.2879C169.739 62.9381 169.663 62.5846 169.48 62.2831C169.298 61.9817 169.02 61.7499 168.69 61.6245V61.533C169.071 61.4288 169.42 61.2289 169.704 60.9524C169.987 60.6759 170.194 60.3317 170.306 59.9527L170.732 58.7965C170.982 58.1311 171.14 57.8733 171.648 57.7403L171.973 57.6571C172.131 57.6571 172.206 57.4991 172.197 57.316L172.09 56.1599C172.09 55.9852 171.898 55.9686 171.789 55.9686C171.305 55.999 170.835 56.1323 170.406 56.3595C170.081 56.5508 169.795 56.8042 169.569 57.1054C169.341 57.4065 169.175 57.7494 169.081 58.1145L168.565 59.4952C168.173 60.5764 167.681 60.7179 167.023 60.7179H166.256L167.09 56.5591C167.09 56.4676 167.181 56.2347 166.84 56.2347L165.423 56.2098ZM158.756 62.9303H156.664L158.107 59.5284C158.278 59.1722 158.42 58.8022 158.531 58.4223C158.531 58.8464 158.531 59.6283 158.572 59.9527L158.756 62.9303ZM158.331 56.2098C158.273 56.1993 158.215 56.2083 158.163 56.2355C158.112 56.2627 158.071 56.3064 158.048 56.3595L152.881 66.9726C152.832 67.0316 152.803 67.1042 152.798 67.1806C152.798 67.2068 152.803 67.2329 152.814 67.2569C152.825 67.2809 152.841 67.3022 152.86 67.3197C152.88 67.337 152.903 67.3499 152.928 67.3575C152.954 67.3651 152.98 67.3671 153.006 67.3635H154.631C154.702 67.3672 154.771 67.3459 154.827 67.3033C154.885 67.2607 154.924 67.1995 154.94 67.1306L156.148 64.3942H158.822L158.931 67.1806C158.931 67.2068 158.936 67.2329 158.947 67.2569C158.957 67.2809 158.973 67.3022 158.993 67.3197C159.014 67.337 159.037 67.3499 159.061 67.3575C159.087 67.3651 159.113 67.3671 159.14 67.3635H160.806C160.881 67.3635 161.09 67.3635 161.072 67.1306L160.148 56.4842C160.148 56.2264 160.015 56.2098 159.857 56.2098H158.331ZM146.906 65.6003L147.572 62.398H148.548C148.724 62.3754 148.904 62.3932 149.074 62.4502C149.243 62.5071 149.396 62.6017 149.522 62.7267C149.65 62.8518 149.746 63.004 149.805 63.1718C149.865 63.3396 149.885 63.5188 149.864 63.6955C149.871 64.1584 149.715 64.6088 149.423 64.9681C149.181 65.2004 148.892 65.3773 148.576 65.4865C148.26 65.5957 147.923 65.6345 147.59 65.6003H146.906ZM147.023 56.2098C146.765 56.2098 146.765 56.3262 146.739 56.4427L144.581 66.9394C144.575 67.0141 144.575 67.0892 144.581 67.164C144.581 67.322 144.664 67.3635 144.822 67.3635H147.623C148.262 67.4187 148.907 67.3317 149.51 67.1088C150.112 66.8859 150.657 66.5325 151.107 66.0743C151.704 65.2941 152.023 64.3368 152.015 63.3545C152.015 62.2316 151.548 60.6347 148.956 60.6347H147.965L148.498 58.0813H151.781C151.853 58.0943 151.927 58.0802 151.988 58.0417C152.05 58.0032 152.094 57.9433 152.114 57.8733L152.673 56.5508C152.712 56.4944 152.735 56.4282 152.739 56.3595C152.739 56.1932 152.581 56.2098 152.473 56.2098H147.023ZM138.498 65.9247C137.572 65.9247 137.482 65.018 137.482 64.3443C137.483 62.7022 137.792 61.0749 138.39 59.5452C138.69 58.8132 139.322 57.6404 140.373 57.6404C141.423 57.6404 141.364 58.6718 141.364 59.204C141.387 60.8515 141.087 62.4875 140.482 64.0199C140.164 64.7769 139.572 65.9247 138.498 65.9247ZM143.498 59.4369C143.498 58.5554 143.357 55.9354 140.69 55.9354C139.664 55.9354 137.947 56.3262 136.664 58.5886C135.788 60.297 135.338 62.192 135.357 64.1114C135.357 66.9643 136.881 67.6131 138.156 67.6131C139.01 67.585 139.841 67.3245 140.558 66.8599C141.273 66.3951 141.849 65.7439 142.223 64.9764C143.054 63.2478 143.484 61.3543 143.482 59.4369H143.498ZM130.248 57.9647H131.864L130.298 65.6003H127.581C128.105 64.8277 128.522 63.9884 128.822 63.105C129.288 61.8569 129.667 60.5787 129.956 59.2789L130.248 57.9647ZM131.039 67.3635L130.581 69.576V69.6592C130.581 69.7091 130.581 69.7506 130.581 69.8006C130.581 69.8504 130.664 70.0002 130.831 70.0002H132.215C132.249 70.0048 132.283 70.0024 132.316 69.9929C132.349 69.9835 132.38 69.9674 132.407 69.9456C132.434 69.9237 132.456 69.8966 132.471 69.8659C132.487 69.8353 132.496 69.8017 132.498 69.7672L133.256 66.0245C133.262 65.9497 133.262 65.8746 133.256 65.7999C133.256 65.6003 133.123 65.6003 133.031 65.6003H132.357L134.164 56.6257C134.17 56.5509 134.17 56.4758 134.164 56.4011C134.164 56.2347 134.09 56.2015 133.931 56.2015H128.857C128.607 56.2015 128.607 56.3179 128.572 56.4344L128.256 57.9315C127.976 59.3649 127.614 60.7811 127.173 62.1735C126.802 63.3936 126.239 64.5474 125.506 65.5919H125.056C124.798 65.5919 124.781 65.6752 124.748 65.8165L123.982 69.5677V69.6509C123.982 69.7008 123.982 69.7423 123.982 69.7923C123.982 69.8421 124.056 69.9918 124.232 69.9918H125.614C125.648 69.9965 125.684 69.994 125.717 69.9846C125.75 69.9752 125.781 69.9591 125.808 69.9373C125.833 69.9154 125.855 69.8883 125.871 69.8576C125.886 69.8268 125.896 69.7934 125.898 69.7589L126.381 67.3552L131.039 67.3635ZM123.039 56.2098C122.756 56.2098 122.706 56.3762 122.581 56.5508L119.623 60.7844C119.298 61.2752 118.381 62.8139 118.148 63.2215H118.089C118.498 61.3167 118.273 62.5727 118.589 61.0257L119.498 56.6257C119.51 56.5513 119.51 56.4755 119.498 56.4011C119.498 56.2347 119.423 56.2015 119.264 56.2015H117.739C117.489 56.2015 117.489 56.3179 117.456 56.4344L115.339 66.9394C115.333 67.0141 115.333 67.0892 115.339 67.164C115.339 67.322 115.414 67.3635 115.573 67.3635H117.014C117.239 67.3635 117.306 67.297 117.448 67.0808L120.598 62.4479C121.076 61.7801 121.502 61.0766 121.873 60.3435H121.931C121.806 60.8177 121.623 61.6162 121.523 62.057L120.523 66.9726C120.517 67.0473 120.517 67.1224 120.523 67.1972C120.523 67.3552 120.598 67.3968 120.764 67.3968H122.281C122.531 67.3968 122.531 67.2804 122.565 67.164L124.681 56.6257C124.686 56.5509 124.686 56.4758 124.681 56.4011C124.681 56.2347 124.607 56.2015 124.447 56.2015L123.039 56.2098ZM108.873 58.7965L107.814 63.9367H107.598C107.089 63.9367 106.414 63.7288 106.414 62.4313C106.391 61.3757 106.681 60.3369 107.248 59.4453C107.415 59.2365 107.629 59.0693 107.871 58.9568C108.114 58.8442 108.38 58.7894 108.648 58.7965H108.873ZM109.706 63.9367L110.831 58.7965H111.048C112.206 58.7965 112.223 59.9693 112.223 60.2771C112.234 61.3389 111.945 62.3823 111.389 63.2879C111.227 63.4984 111.017 63.6672 110.777 63.78C110.536 63.8929 110.272 63.9466 110.006 63.9367H109.706ZM109.756 55.561C109.331 55.561 109.406 55.7357 109.381 55.902L109.164 57.1664H108.623C108.051 57.1516 107.483 57.2675 106.963 57.5054C106.443 57.7433 105.985 58.0968 105.623 58.5387C104.801 59.6768 104.36 61.0451 104.364 62.4479C104.364 65.0513 106.223 65.6335 107.414 65.5836L107.114 67.0308C107.039 67.4301 107.239 67.3801 107.381 67.3801H108.764C109.173 67.3801 109.131 67.164 109.164 67.0308L109.456 65.5836H109.998C110.569 65.5981 111.135 65.4829 111.655 65.2466C112.175 65.0103 112.634 64.659 112.998 64.2196C113.801 63.0732 114.235 61.7092 114.239 60.3103C114.239 57.7403 112.423 57.1247 111.198 57.183L111.464 55.9186C111.539 55.5278 111.323 55.5776 111.206 55.5776L109.756 55.561ZM101.664 56.2098C101.381 56.2098 101.339 56.3762 101.214 56.5508L98.2728 60.7844C97.9394 61.2752 97.0311 62.8139 96.7894 63.2215H96.7311C97.1394 61.3167 96.9144 62.5727 97.2311 61.0257L98.1394 56.6257C98.1514 56.5513 98.1514 56.4755 98.1394 56.4011C98.1394 56.2347 98.0644 56.2015 97.9061 56.2015H96.4144C96.1644 56.2015 96.1644 56.3179 96.1311 56.4344L93.9811 66.9394C93.9747 67.0141 93.9747 67.0892 93.9811 67.164C93.9811 67.322 94.0644 67.3635 94.2144 67.3635H95.6644C95.8811 67.3635 95.9477 67.297 96.0894 67.0808L99.2394 62.4479C99.7177 61.7801 100.144 61.0766 100.514 60.3435H100.581C100.456 60.8177 100.264 61.6162 100.173 62.057L99.1644 66.9394C99.158 67.0141 99.158 67.0892 99.1644 67.164C99.1644 67.322 99.2477 67.3635 99.3978 67.3635H100.923C101.181 67.3635 101.181 67.2471 101.214 67.1306L103.331 56.6257C103.336 56.5509 103.336 56.4758 103.331 56.4011C103.331 56.2347 103.256 56.2015 103.098 56.2015L101.664 56.2098ZM87.2311 65.6003L87.8978 62.398H88.8728C89.0496 62.3754 89.2292 62.3932 89.3982 62.4502C89.5671 62.5071 89.7208 62.6017 89.8478 62.7267C89.9746 62.8518 90.0713 63.004 90.1305 63.1718C90.1897 63.3396 90.2099 63.5188 90.1894 63.6955C90.1906 64.1498 90.0346 64.5905 89.7477 64.9432C89.5071 65.1759 89.2182 65.3531 88.9014 65.4624C88.5846 65.5716 88.2477 65.6102 87.9144 65.5753L87.2311 65.6003ZM87.3478 56.2098C87.0978 56.2098 87.0978 56.3262 87.0644 56.4427L84.9061 66.9394C84.9061 67.0308 84.9061 67.0974 84.9061 67.164C84.9061 67.2304 84.9811 67.3635 85.1394 67.3635H87.9394C88.504 67.4488 89.0805 67.4071 89.6268 67.2414C90.1732 67.0758 90.6756 66.7905 91.0973 66.4062C91.519 66.022 91.8493 65.5486 92.0643 65.0206C92.2791 64.4927 92.3731 63.9234 92.3394 63.3545C92.3394 62.2316 91.8644 60.6347 89.2728 60.6347H88.2811L88.8144 58.0813H92.0978C92.1693 58.0943 92.2431 58.0802 92.3049 58.0417C92.3665 58.0032 92.4115 57.9433 92.4311 57.8733L92.9977 56.5508C93.0308 56.4921 93.0508 56.4267 93.0561 56.3595C93.0561 56.1932 92.9061 56.2098 92.7894 56.2098H87.3478ZM74.9311 56.2098C74.6811 56.2098 74.6811 56.3262 74.6478 56.4427L72.4977 66.9394C72.4914 67.0141 72.4914 67.0892 72.4977 67.164C72.4977 67.322 72.5728 67.3635 72.7311 67.3635H77.9144C78.1644 67.3635 78.1644 67.2471 78.1978 67.1306L78.4644 65.8248C78.4644 65.6501 78.2561 65.6501 78.1978 65.6501H74.8644L75.5228 62.3813H78.2228C78.4311 62.3813 78.4644 62.3813 78.5061 62.1484L78.7478 60.9591C78.7478 60.8676 78.8061 60.6679 78.5394 60.6679H75.8311L76.3978 57.9232H79.4811C79.5894 57.9232 79.6978 57.9232 79.8061 57.7069L80.3727 56.5508C80.4072 56.4919 80.4299 56.427 80.4394 56.3595C80.4394 56.1932 80.2811 56.2098 80.1727 56.2098H74.9311ZM69.9311 56.2098C69.6811 56.2098 69.6811 56.3262 69.6478 56.4427L67.4978 66.9394C67.4914 67.0141 67.4914 67.0892 67.4978 67.164C67.4978 67.322 67.5811 67.3635 67.7311 67.3635H69.2561C69.5144 67.3635 69.5144 67.2471 69.5394 67.1306L71.6644 56.6257C71.6704 56.5509 71.6704 56.4758 71.6644 56.4011C71.6644 56.2347 71.5894 56.2015 71.4311 56.2015L69.9311 56.2098ZM61.8061 65.6003L62.4977 62.398H63.2061C63.6478 62.398 64.7978 62.3481 64.7978 63.6789C64.7921 64.1428 64.6241 64.59 64.3228 64.9432C64.0805 65.1761 63.7902 65.3533 63.472 65.4625C63.1539 65.5717 62.8156 65.6102 62.4811 65.5753L61.8061 65.6003ZM61.9061 56.2098C61.6561 56.2098 61.6561 56.3262 61.6227 56.4427L59.4811 66.9394C59.4747 67.0141 59.4747 67.0892 59.4811 67.164C59.4811 67.322 59.5644 67.3635 59.7227 67.3635H62.4977C63.0643 67.4524 63.6437 67.4126 64.1927 67.2473C64.7417 67.0819 65.2464 66.7952 65.6692 66.4084C66.092 66.0217 66.4219 65.5447 66.6346 65.0131C66.8474 64.4816 66.9373 63.909 66.8978 63.3379C66.9156 62.9806 66.8596 62.6235 66.7335 62.2888C66.6074 61.954 66.4137 61.6485 66.1644 61.3916C65.8484 61.1151 65.4792 60.9055 65.0796 60.7753C64.68 60.6452 64.2582 60.5975 63.8394 60.6347H62.8311L63.6644 56.634C63.6696 56.5592 63.6696 56.4842 63.6644 56.4094C63.6644 56.243 63.5811 56.2098 63.4228 56.2098H61.9061ZM52.7394 65.7749L53.4144 62.4479H54.2978C54.7811 62.4479 55.6478 62.4479 55.6478 63.7121C55.6705 64.2159 55.5008 64.7095 55.1728 65.0928C54.9392 65.3222 54.6568 65.496 54.3465 65.6011C54.0364 65.7063 53.7063 65.74 53.3811 65.7001L52.7394 65.7749ZM53.7478 60.8925L54.3561 57.8816H55.1144C55.5561 57.8816 56.3811 57.8816 56.3811 58.9545C56.3963 59.3976 56.2644 59.8333 56.0061 60.1939C55.8041 60.4343 55.5474 60.6232 55.2576 60.7448C54.9677 60.8663 54.6529 60.917 54.3394 60.8925H53.7478ZM52.9144 56.2513C52.6644 56.2513 52.6644 56.3679 52.6311 56.4842L50.4478 66.9394C50.4414 67.0141 50.4414 67.0892 50.4478 67.164C50.4478 67.322 50.5311 67.3635 50.6811 67.3635H53.2644C54.5311 67.3635 55.9811 67.2304 56.9811 66.0577C57.5105 65.4407 57.8055 64.6575 57.8144 63.8452C57.8487 63.3532 57.7261 62.8628 57.4642 62.4445C57.2022 62.0262 56.8143 61.7013 56.3561 61.5164C56.7682 61.3253 57.1523 61.079 57.4978 60.7844C57.7924 60.5172 58.027 60.1909 58.1865 59.8268C58.3459 59.4627 58.4264 59.0691 58.4228 58.6718C58.4228 56.2764 56.1561 56.2264 55.5311 56.2264L52.9144 56.2513ZM48.0144 56.2513C47.7311 56.2513 47.6811 56.4177 47.5561 56.5925L44.5644 60.7844C44.2394 61.2752 43.3228 62.8139 43.0894 63.2215H43.0311C43.4394 61.3167 43.2144 62.5727 43.5311 61.0257L44.4394 56.6257C44.4514 56.5513 44.4514 56.4755 44.4394 56.4011C44.4394 56.2347 44.3644 56.2015 44.2061 56.2015H42.7144C42.4644 56.2015 42.4644 56.3179 42.4311 56.4344L40.2727 66.9394C40.2727 67.0308 40.2727 67.0974 40.2727 67.164C40.2727 67.2304 40.3478 67.3635 40.5061 67.3635H41.9478C42.1728 67.3635 42.2311 67.297 42.3811 67.0808L45.5394 62.4479C46.0177 61.7801 46.4441 61.0766 46.8144 60.3435H46.8811C46.7478 60.8177 46.5644 61.6162 46.4644 62.057L45.4644 66.9726C45.458 67.0473 45.458 67.1224 45.4644 67.1972C45.4644 67.3552 45.5394 67.3968 45.7061 67.3968H47.2228C47.4728 67.3968 47.4727 67.2804 47.5061 67.164L49.6311 56.6257C49.6311 56.5259 49.6311 56.4593 49.6311 56.4011C49.6311 56.3429 49.5561 56.2015 49.3978 56.2015L48.0144 56.2513ZM33.4728 56.2513C33.3478 56.2513 33.1644 56.2513 33.0978 56.5757L32.2644 60.7345H31.9228C30.8311 60.6847 30.8311 60.1191 30.8311 59.462L30.7144 58.0813C30.7415 57.7506 30.6908 57.4183 30.5664 57.1107C30.442 56.8031 30.2473 56.5288 29.9978 56.3096C29.5889 56.0678 29.123 55.9385 28.6478 55.9354C28.58 55.9268 28.5114 55.941 28.4525 55.9756C28.3937 56.0102 28.3481 56.0634 28.3228 56.1266L27.8811 57.2828C27.7978 57.4823 27.8811 57.6154 27.9728 57.6237L28.4894 57.7235C28.7311 57.7735 28.9061 57.9564 28.9644 58.7633L29.0394 59.9527C29.0058 60.2599 29.0678 60.5699 29.217 60.8408C29.366 61.1115 29.5951 61.33 29.8728 61.4664V61.5164C29.4621 61.6598 29.0883 61.8922 28.7785 62.1972C28.4687 62.5021 28.2305 62.8718 28.0811 63.2796L27.4978 64.6437C27.2228 65.3257 27.1061 65.6169 26.5894 65.7333L26.1644 65.8248C26.1273 65.8305 26.0919 65.8439 26.0604 65.8643C26.0289 65.8846 26.002 65.9114 25.9816 65.9428C25.9611 65.9741 25.9475 66.0096 25.9417 66.0466C25.9359 66.0836 25.9379 66.1213 25.9478 66.1575L26.1477 67.4384C26.1477 67.5632 26.1478 67.6796 26.4311 67.6796C27.0504 67.6788 27.6549 67.4902 28.1644 67.1389C28.6588 66.7051 29.0078 66.1302 29.1644 65.4921L29.9978 63.5375C30.0634 63.2258 30.2357 62.9467 30.4851 62.7479C30.7345 62.549 31.0453 62.443 31.3644 62.4479H31.8561L30.9144 67.0308C30.8478 67.3469 31.0311 67.3635 31.1644 67.3635H32.5894C32.9228 67.3635 32.9394 67.164 32.9644 67.0308L33.9144 62.4479H34.3394C35.3561 62.4479 35.3561 63.055 35.3561 63.5458V65.5004C35.3132 65.7931 35.3302 66.0914 35.4062 66.3773C35.4821 66.6632 35.6153 66.9308 35.7978 67.164C36.2058 67.491 36.7161 67.6647 37.2394 67.6547C37.3259 67.6665 37.4138 67.6492 37.4893 67.6056C37.5648 67.5619 37.6235 67.4942 37.6561 67.4135L38.1811 66.1742C38.1811 66.1076 38.3144 65.8996 38.0894 65.8415L37.7144 65.7749C37.3561 65.6918 37.2561 65.5337 37.2394 64.6853V63.3213C37.268 62.9744 37.187 62.6273 37.0076 62.3289C36.8281 62.0306 36.5595 61.7958 36.2394 61.6577V61.533C36.6114 61.4128 36.9498 61.2071 37.2278 60.9327C37.5056 60.6583 37.7152 60.3227 37.8394 59.9527L38.2644 58.7965C38.5144 58.1311 38.6728 57.8733 39.1728 57.7403L39.5061 57.6571C39.6644 57.6571 39.7394 57.4991 39.7227 57.316L39.6144 56.1599C39.6144 55.9852 39.4227 55.9686 39.3227 55.9686C38.8345 56.0008 38.3594 56.1399 37.9311 56.3762C37.2802 56.7603 36.8072 57.3847 36.6144 58.1145L36.0978 59.4952C35.7561 60.4267 35.3561 60.7179 34.5561 60.7179H34.2728L35.1061 56.5591C35.1061 56.4676 35.1978 56.2347 34.8561 56.2347L33.4728 56.2513Z" fill="#008370"/>
<path fill-rule="evenodd" clip-rule="evenodd" d="M181.375 11.1533C184.016 10.804 186.692 10.804 189.333 11.1533L187.3 24.7108C187.251 24.9506 187.257 25.1986 187.32 25.4353C187.382 25.6721 187.499 25.8912 187.66 26.0755C187.821 26.2599 188.023 26.4046 188.25 26.4983C188.477 26.592 188.722 26.6321 188.967 26.6156C190.342 26.6156 192.616 25.4927 192.866 23.9622L194.783 11.1533C197.421 10.804 200.094 10.804 202.733 11.1533C201.622 18.6058 200.511 26.0583 199.399 33.5107C196.758 33.8517 194.083 33.8517 191.441 33.5107L191.658 32.0968C189.91 33.1474 187.93 33.7529 185.892 33.86C177.258 33.86 178.892 27.4722 179.342 24.7108C180.092 20.2194 180.7 15.6614 181.375 11.1533ZM178.399 11.1533C178.448 13.2899 178.144 15.4198 177.5 17.458H172.5L170.108 33.5107C167.467 33.8517 164.791 33.8517 162.149 33.5107L164.55 17.458H159.916C159.878 15.3208 160.187 13.1915 160.833 11.1533H178.399ZM122.85 11.1533H136.616L135.684 17.458H128.434L128.2 19.0051H134.866L134.033 24.7108H127.366L127 27.2061H134.25L133.3 33.5191H120.391C118.241 33.5191 118.308 31.9886 118.433 31.2068L121.075 13.4656C121.191 12.6588 121.325 11.1533 122.85 11.1533ZM151.666 10.463C153.682 10.4094 155.682 10.8371 157.5 11.7106C157.648 11.9371 157.738 12.1975 157.758 12.4675C157.85 13.1464 157.85 13.8347 157.758 14.5136C157.649 15.6087 157.348 16.6759 156.866 17.6659C156.733 17.8988 156.258 18.4977 155.975 18.2149C155.012 17.3813 153.774 16.9311 152.5 16.9507C150.994 16.894 149.519 17.3873 148.351 18.3381C147.185 19.2889 146.404 20.6321 146.158 22.1158C145.684 24.9604 146.866 27.281 150.774 27.281C152.217 27.3011 153.628 26.8739 154.816 26.0583C154.907 26.0312 155.002 26.0312 155.092 26.0583C155.181 26.1301 155.255 26.2212 155.305 26.3248C155.355 26.4283 155.382 26.5419 155.383 26.6571C155.485 28.4039 155.279 30.1549 154.774 31.8306C154.606 32.1962 154.351 32.5158 154.033 32.7622C152.099 33.6905 149.979 34.171 147.833 34.1678C141.166 34.1678 136.758 29.6098 137.833 22.2988C138.294 18.9808 139.956 15.9459 142.503 13.7657C145.051 11.5856 148.311 10.4109 151.666 10.463ZM75.3748 19.4792H76.2664C76.7607 19.4528 77.2359 19.2807 77.632 18.9845C78.0281 18.6884 78.3272 18.2815 78.4914 17.8156L78.7498 16.8758C78.9079 16.368 79.2243 15.9238 79.6531 15.608C80.0818 15.2923 80.6004 15.1217 81.1331 15.1207H82.0831C82.3111 15.1064 82.539 15.1475 82.7475 15.2407C82.9559 15.3338 83.1385 15.4761 83.2795 15.6554C83.4207 15.8347 83.516 16.0455 83.5573 16.2696C83.5984 16.4939 83.5844 16.7247 83.5164 16.9423L83.3331 17.6243C83.2641 17.8381 83.2482 18.0654 83.2864 18.2866C83.3248 18.5079 83.4162 18.7166 83.553 18.8948C83.6898 19.0731 83.8679 19.2156 84.072 19.3102C84.2761 19.4047 84.5 19.4484 84.7248 19.4375H85.4331C85.6604 19.4287 85.8867 19.475 86.0922 19.5725C86.2977 19.67 86.4765 19.8157 86.6133 19.9972C86.7501 20.1786 86.8408 20.3905 86.8776 20.6147C86.9145 20.8388 86.8963 21.0684 86.8248 21.2841L86.5914 22.2073C86.4552 22.7217 86.1576 23.1791 85.7423 23.5129C85.327 23.8466 84.8157 24.0389 84.2831 24.0621H83.3331C82.8536 24.0971 82.3936 24.2662 82.006 24.5502C81.6184 24.834 81.3188 25.2213 81.1414 25.6673L80.9081 26.6821C80.7486 27.1884 80.4315 27.6306 80.0028 27.9447C79.5743 28.2589 79.0565 28.4284 78.5248 28.4288H77.5748C77.3463 28.4451 77.1173 28.4054 76.9077 28.3129C76.6983 28.2204 76.5147 28.0779 76.3732 27.8981C76.2318 27.7183 76.1365 27.5065 76.0962 27.2814C76.0558 27.0565 76.0713 26.8249 76.1414 26.6073L76.3164 25.9585C76.3943 25.7416 76.4169 25.5089 76.3822 25.2811C76.3477 25.0535 76.2568 24.8379 76.1179 24.654C75.9791 24.47 75.7966 24.3234 75.5868 24.2274C75.3771 24.1313 75.1467 24.0887 74.9164 24.1036H74.2248C73.9965 24.1129 73.7693 24.0666 73.5628 23.9688C73.3564 23.8709 73.177 23.7243 73.04 23.5417C72.903 23.3591 72.8125 23.1461 72.7765 22.9208C72.7405 22.6956 72.7599 22.465 72.8331 22.2488L73.0581 21.3256C73.2033 20.8152 73.5046 20.3629 73.92 20.0318C74.3353 19.7007 74.844 19.5075 75.3748 19.4792ZM81.5331 10.463C90.0831 10.463 92.9914 16.4266 91.8998 22.9808C90.8081 29.5349 85.1581 34.1678 77.5664 34.1678C70.6498 34.1678 66.0998 29.6098 67.2498 22.2988C68.3998 14.9877 74.6164 10.463 81.5331 10.463ZM105.641 16.41H107.4C107.626 16.4171 107.847 16.4737 108.049 16.5757C108.25 16.6778 108.427 16.8229 108.566 17.0006C108.705 17.1784 108.804 17.3846 108.854 17.6044C108.904 17.8243 108.906 18.0527 108.858 18.2731C108.828 18.5527 108.743 18.8234 108.607 19.0699C108.472 19.3165 108.289 19.5338 108.069 19.7093C107.849 19.8848 107.596 20.0151 107.326 20.0927C107.055 20.1702 106.771 20.1935 106.491 20.1612H105.083L105.641 16.41ZM104.508 24.4863H106.483C106.722 24.4747 106.96 24.5163 107.181 24.6083C107.402 24.7003 107.599 24.8401 107.759 25.0178C107.918 25.1955 108.036 25.4064 108.104 25.6353C108.172 25.8643 108.187 26.1053 108.15 26.341C107.941 27.5056 107.083 28.2291 105.491 28.2291H103.908L104.508 24.4863ZM98.4748 11.1783H110.358C115.133 11.1783 116.5 13.4822 116.475 15.5782C116.45 17.6743 115.566 19.737 112.45 20.7351C116.05 22.0992 116.791 24.4114 116.191 27.1729C115.3 31.2234 111.8 33.5357 107.025 33.5357H95.1414C96.2526 26.0666 97.3636 18.6058 98.4748 11.1533V11.1783ZM43.2164 11.1783C45.8576 10.829 48.5336 10.829 51.1748 11.1783L49.1664 24.7108C49.1171 24.9506 49.1239 25.1986 49.1864 25.4353C49.2489 25.6721 49.3653 25.8912 49.5267 26.0755C49.688 26.2599 49.89 26.4046 50.1166 26.4983C50.3432 26.592 50.5884 26.6321 50.8331 26.6156C52.2081 26.6156 54.4831 25.4927 54.7331 23.9622L56.6664 11.1533C59.3077 10.804 61.9836 10.804 64.6248 11.1533C63.5136 18.6058 62.4026 26.0583 61.2914 33.5107C58.6497 33.8517 55.9749 33.8517 53.3331 33.5107L53.5498 32.0968C51.8014 33.1474 49.8211 33.7529 47.7831 33.86C39.1414 33.86 40.7831 27.4722 41.2331 24.7108C41.9331 20.2194 42.5414 15.6614 43.2164 11.1533V11.1783ZM27.3081 24.8605H28.5081C29.2831 24.8605 30.2831 25.5592 30.1081 26.4824C30.0065 27.0175 29.7063 27.4947 29.2675 27.8185C28.8288 28.1422 28.2838 28.2889 27.7414 28.2291H26.7998L27.3081 24.8605ZM21.6081 33.5107H28.9581C33.7414 33.5107 37.0664 31.1985 38.0081 26.4991C38.7914 22.6148 36.8164 19.4209 31.4498 19.4043H28.1164L28.4081 17.458H37.3081C37.9587 15.4207 38.2739 13.2914 38.2414 11.1533H21.3914C20.2803 18.6058 19.1693 26.0583 18.0581 33.5107H21.6081ZM206.774 11.1533C209.416 10.804 212.092 10.804 214.733 11.1533L213.559 19.0051H219.017L220.191 11.1533C222.833 10.804 225.508 10.804 228.149 11.1533C227.039 18.6058 225.927 26.0583 224.816 33.5107C222.177 33.8517 219.506 33.8517 216.866 33.5107L218.175 24.7108H212.717L211.408 33.5107C208.767 33.8517 206.092 33.8517 203.45 33.5107C204.561 26.0583 205.669 18.6058 206.774 11.1533Z" fill="white"/>
<path fill-rule="evenodd" clip-rule="evenodd" d="M243.849 5.19003H245.292C245.537 5.19937 245.783 5.16558 246.016 5.09021C246.177 5.03677 246.315 4.93138 246.408 4.79079C246.496 4.65454 246.543 4.49553 246.542 4.33332C246.545 4.2219 246.525 4.11105 246.479 4.00889C246.435 3.90672 246.368 3.81581 246.283 3.74278C246.044 3.56513 245.746 3.48218 245.45 3.50989H243.842L243.849 5.19003ZM243.175 8.01797V2.95262H245.433C245.779 2.93661 246.127 2.98165 246.458 3.08571C246.695 3.18092 246.893 3.35024 247.025 3.56812C247.164 3.79886 247.237 4.06387 247.233 4.33332C247.241 4.66984 247.115 4.99583 246.884 5.23993C246.591 5.51692 246.211 5.6844 245.808 5.71403C245.952 5.77786 246.087 5.86188 246.208 5.96355C246.422 6.1642 246.609 6.39051 246.766 6.63726L247.65 8.01797H246.816L246.141 6.96165C245.95 6.66223 245.783 6.42101 245.658 6.26299C245.561 6.13335 245.446 6.01847 245.316 5.92196C245.221 5.86234 245.118 5.81748 245.009 5.78889C244.886 5.77714 244.764 5.77714 244.641 5.78889H243.858V8.04292L243.175 8.01797Z" fill="#F28700"/>
<path fill-rule="evenodd" clip-rule="evenodd" d="M248.103 2.38736C247.394 1.68344 246.462 1.24653 245.466 1.15102C244.471 1.05551 243.473 1.3073 242.642 1.86353C241.813 2.41977 241.2 3.24606 240.912 4.20177C240.623 5.15746 240.675 6.1835 241.059 7.10521C241.443 8.02692 242.135 8.78735 243.017 9.25704C243.9 9.72672 244.918 9.87664 245.898 9.68128C246.88 9.48593 247.762 8.95736 248.397 8.18555C249.031 7.41375 249.378 6.4464 249.378 5.4482C249.378 4.87933 249.265 4.31605 249.047 3.79076C248.827 3.26548 248.506 2.78855 248.103 2.38736ZM245.003 0.490983C246.161 0.488048 247.284 0.886522 248.18 1.61835C249.077 2.35017 249.691 3.36997 249.918 4.50356C250.145 5.63714 249.971 6.81422 249.425 7.83374C248.879 8.85326 247.995 9.652 246.925 10.0936C245.854 10.5351 244.664 10.5921 243.557 10.2547C242.449 9.91737 241.493 9.20664 240.851 8.2439C240.21 7.28117 239.924 6.12614 240.041 4.97608C240.158 3.82602 240.672 2.75229 241.494 1.93823C242.428 1.01424 243.688 0.494313 245.003 0.490983Z" fill="#F28700"/>
</g>
</svg>
