<svg width="15" height="15" viewBox="0 0 15 15" fill="none" xmlns="http://www.w3.org/2000/svg">
<path d="M8.6748 3.6758C9.32944 3.80327 9.93107 4.12283 10.4027 4.59355C10.8743 5.06428 11.1945 5.66476 11.3222 6.31814M8.6748 1C10.0349 1.15081 11.3032 1.75871 12.2714 2.72389C13.2397 3.68907 13.8503 4.95416 14.0031 6.31145" stroke="#F28700" stroke-width="0.84" stroke-linecap="round" stroke-linejoin="round"/>
<path d="M13.3296 11.6497V13.6566C13.3304 13.8429 13.2921 14.0273 13.2174 14.198C13.1426 14.3687 13.0329 14.5219 12.8954 14.6479C12.7578 14.7738 12.5954 14.8697 12.4186 14.9294C12.2418 14.9891 12.0544 15.0112 11.8685 14.9945C9.8061 14.7708 7.82501 14.0674 6.08443 12.9408C4.46504 11.9137 3.09207 10.5434 2.06305 8.92711C0.930343 7.18195 0.225438 5.19504 0.00544006 3.12732C-0.0113087 2.94233 0.0107181 2.75589 0.0701175 2.57987C0.129517 2.40384 0.224988 2.24209 0.350452 2.10491C0.475916 1.96773 0.628623 1.85813 0.798852 1.78308C0.969081 1.70803 1.1531 1.66919 1.3392 1.66901H3.34989C3.67515 1.66581 3.99049 1.78078 4.23711 1.99247C4.48374 2.20416 4.64482 2.49814 4.69035 2.8196C4.77521 3.46184 4.9326 4.09243 5.15951 4.69935C5.24968 4.93878 5.2692 5.199 5.21575 5.44916C5.16229 5.69932 5.03811 5.92895 4.85791 6.11083L4.00671 6.9604C4.96082 8.63514 6.35014 10.0218 8.02809 10.9741L8.87929 10.1245C9.06151 9.94467 9.29158 9.82072 9.54222 9.76737C9.79287 9.71402 10.0536 9.73349 10.2935 9.8235C10.9016 10.05 11.5334 10.2071 12.1768 10.2918C12.5024 10.3376 12.7997 10.5013 13.0123 10.7517C13.2248 11.002 13.3378 11.3217 13.3296 11.6497Z" fill="#F28700"/>
</svg>
