<svg width="18" height="18" viewBox="0 0 18 18" fill="none" xmlns="http://www.w3.org/2000/svg">
<path d="M16.9921 1.34097V5.33697H12.9961" stroke="#F28700" stroke-linecap="round" stroke-linejoin="round"/>
<path d="M1.00791 16.6588L1.00791 12.6628L5.00391 12.6628" stroke="#F28700" stroke-linecap="round" stroke-linejoin="round"/>
<path d="M0.675293 8.99993C0.675293 7.24186 1.23186 5.52892 2.26523 4.10661C3.29859 2.68431 4.75571 1.62565 6.42773 1.08238C8.09975 0.539108 9.90084 0.539109 11.5729 1.08238C13.2449 1.62566 14.702 2.68431 15.7354 4.10662" stroke="#F28700" stroke-linecap="round"/>
<path d="M17.3247 8.99994C17.3247 10.758 16.7681 12.4709 15.7348 13.8933C14.7014 15.3156 13.2443 16.3742 11.5723 16.9175C9.90026 17.4608 8.09917 17.4608 6.42715 16.9175C4.75513 16.3742 3.29801 15.3156 2.26465 13.8933" stroke="#F28700" stroke-linecap="round"/>
<rect x="1.12646" y="12.825" width="1.125" height="1.125" fill="#F28700"/>
<rect x="15.7515" y="3.93741" width="1.125" height="1.125" fill="#F28700"/>
</svg>
