<svg width="40" height="27" viewBox="0 0 40 27" fill="none" xmlns="http://www.w3.org/2000/svg">
<path d="M39.1561 4.16327C38.9285 3.35788 38.4828 2.62355 37.8636 2.03379C37.2443 1.44402 36.4733 1.01951 35.6277 0.802721C32.5136 1.77196e-07 20 0 20 0C20 0 7.48639 1.77196e-07 4.37227 0.802721C3.52666 1.01951 2.75566 1.44402 2.13644 2.03379C1.51722 2.62355 1.0715 3.35788 0.843887 4.16327C0.262412 7.18812 -0.0197625 10.2583 0.00107485 13.3333C-0.0197625 16.4084 0.262412 19.4786 0.843887 22.5034C1.0715 23.3088 1.51722 24.0431 2.13644 24.6329C2.75566 25.2226 3.52666 25.6472 4.37227 25.8639C7.48639 26.6667 20 26.6667 20 26.6667C20 26.6667 32.5136 26.6667 35.6277 25.8639C36.4733 25.6472 37.2443 25.2226 37.8636 24.6329C38.4828 24.0431 38.9285 23.3088 39.1561 22.5034C39.7376 19.4786 40.0198 16.4084 39.9989 13.3333C40.0198 10.2583 39.7376 7.18812 39.1561 4.16327ZM16.0002 19.0476V7.61905L26.3854 13.3333L16.0002 19.0476Z" fill="#F28700"/>
</svg>
