<svg width="18" height="18" fill="none" xmlns="http://www.w3.org/2000/svg">
    <path d="M5.958 4.173a6.187 6.187 0 1 0 3.925-.735" stroke="#F28700" stroke-linecap="round"/>
    <path d="M10.688 3.25v.5a.5.5 0 0 0 .4-.8l-.4.3Zm-2 4v.5a.5.5 0 0 0 .4-.8l-.4.3Zm0-1.5a2 2 0 0 1 2-2v-1a3 3 0 0 0-3 3h1Zm.4 1.2a1.989 1.989 0 0 1-.4-1.2h-1c0 .675.223 1.299.6 1.8l.8-.6Zm-.4-.2v1-1Zm0 0a2 2 0 0 1-2-2h-1a3 3 0 0 0 3 3v-1Zm-2-2a2 2 0 0 1 2-2v-1a3 3 0 0 0-3 3h1Zm2-2c.653 0 1.234.313 1.6.8l.8-.6a2.996 2.996 0 0 0-2.4-1.2v1Z" fill="#F28700"/>
    <path d="M10.688 9s.562-.563 1.406-.563c.844 0 1.406.563 1.406.563M5.063 9s.562-.563 1.406-.563c.843 0 1.406.563 1.406.563M10.688 12.375s-.563.563-1.407.563c-.844 0-1.406-.563-1.406-.563" stroke="#F28700" stroke-linecap="round" stroke-linejoin="round"/>
    <rect x="15.188" y="7.875" width="2.025" height="3.375" rx="1.012" stroke="#F28700"/>
    <rect x=".787" y="7.875" width="2.025" height="3.038" rx="1.012" stroke="#F28700"/>
</svg>
