<svg width="18" height="18" fill="none" xmlns="http://www.w3.org/2000/svg">
    <path d="M13.215 8.063a.578.578 0 0 1-.578-.578c0-.277-.277-.855-.742-1.357-.457-.488-.96-.773-1.38-.773a.578.578 0 0 1 0-1.155c.75 0 1.537.405 2.227 1.133.645.682 1.058 1.53 1.058 2.145a.586.586 0 0 1-.585.585ZM15.922 8.063a.578.578 0 0 1-.577-.578 4.828 4.828 0 0 0-4.823-4.822.578.578 0 0 1-.577-.578c0-.315.255-.585.57-.585 3.3 0 5.985 2.685 5.985 5.985a.583.583 0 0 1-.578.577ZM7.2 13.8l2.453-2.453S8.58 10.433 8.28 10.14c-.037-.038-.077-.075-.116-.113a6.672 6.672 0 0 1-.117-.112c-.39-.397-.75-.795-1.087-1.185-.33-.39-.563-.713-.697-.96l-.03-.075c-.01-.023-.02-.047-.03-.075a.68.68 0 0 1-.023-.173c0-.12.038-.217.12-.3l.57-.592c.18-.18.322-.36.42-.532.105-.173.157-.353.157-.533 0-.143-.037-.3-.104-.458a2.567 2.567 0 0 0-.3-.524l-1.74-2.453a1.223 1.223 0 0 0-.503-.42 1.41 1.41 0 0 0-.607-.135c-.555 0-1.08.232-1.56.705a3.452 3.452 0 0 0-.863 1.252c-.18.45-.27.938-.27 1.448 0 .78.18 1.598.533 2.452.36.848.855 1.703 1.47 2.558a21.31 21.31 0 0 0 2.092 2.453l.124.12c.041.039.082.078.123.12.3.284 1.358 1.192 1.358 1.192Z" fill="#fff"/>
    <path d="M16.365 14.385c.075-.21.113-.428.113-.637 0-.21-.045-.398-.12-.585a1.138 1.138 0 0 0-.413-.48l-2.482-1.763a2.9 2.9 0 0 0-.525-.293 1.197 1.197 0 0 0-.458-.097.999.999 0 0 0-.532.158c-.173.09-.353.232-.54.42l-.57.562a.413.413 0 0 1-.308.127.518.518 0 0 1-.255-.06l-.067-.03a4.214 4.214 0 0 1-.555-.36L7.2 13.8c.278.232.57.45.863.667a13.173 13.173 0 0 0 2.58 1.486c.862.367 1.68.547 2.445.547a3.789 3.789 0 0 0 1.45-.281c.005-.002.008-.004.012-.004.458-.188.863-.48 1.23-.885.218-.24.383-.495.51-.765.03-.06.053-.12.075-.18Z" fill="#fff"/>
</svg>
