<svg width="250" height="70" fill="none" xmlns="http://www.w3.org/2000/svg">
    <mask id="a" style="mask-type:luminance" maskUnits="userSpaceOnUse" x="0" y="0" width="250" height="70">
        <path d="M250 0H0v70h250V0Z" fill="#fff"/>
    </mask>
    <g mask="url(#a)">
        <path fill-rule="evenodd" clip-rule="evenodd" d="M37.992 2.321H220.95c5.484 0 10.75 1.664 14.467 5.822a19.895 19.895 0 0 1 4.925 12.992c0 6.58-3.717 12.793-8.759 16.843a18.878 18.878 0 0 1-3.675 2.354 24.645 24.645 0 0 1-9.167 2.096c-4.641.333-9.458.233-14.116.233H21.667c-5.475 0-10.742-1.663-14.459-5.822a19.857 19.857 0 0 1-4.9-12.984c0-6.587 3.725-12.8 8.767-16.843a18.702 18.702 0 0 1 3.667-2.354 24.489 24.489 0 0 1 9.133-2.096c4.642-.34 9.458-.24 14.117-.24Zm0-2.304H220.95c6.158 0 12.033 1.93 16.2 6.654a22.183 22.183 0 0 1 5.5 14.523c0 7.286-4.034 14.14-9.625 18.639a21.032 21.032 0 0 1-4.108 2.628 26.757 26.757 0 0 1-10 2.33c-4.75.34-9.517.24-14.283.24H21.667c-6.15 0-12.034-1.93-16.192-6.654A22.209 22.209 0 0 1 0 23.855c0-7.294 4.033-14.14 9.625-18.648a21.736 21.736 0 0 1 4.117-2.645 26.867 26.867 0 0 1 10-2.32c4.716-.325 9.491-.225 14.25-.225Z" fill="#F28700"/>
        <path fill-rule="evenodd" clip-rule="evenodd" d="M37.99 4.632h182.958c4.776 0 9.45 1.364 12.734 5.074a17.554 17.554 0 0 1 4.35 11.461c0 5.664-3.209 11.279-7.9 15.047-5.375 4.317-10.416 4.158-25.475 4.158H21.665c-4.767 0-9.45-1.364-12.733-5.065a17.58 17.58 0 0 1-4.308-11.453c0-5.664 3.2-11.312 7.875-15.046C17.89 4.49 22.931 4.632 37.99 4.632Z" fill="#F28700"/>
        <path fill-rule="evenodd" clip-rule="evenodd" d="M65.832 40.38c4.85 0 7.708-.257 10.975-2.902 4.825-3.901 5.083-7.486 6.6-13.5 1.517-5.34.833-10.421 4.433-15.32 2.659-3.66 4.375-4.026 4.767-4.026H37.99c-15.058 0-20.1-.141-25.467 4.159-4.7 3.751-7.9 9.399-7.9 15.063a17.58 17.58 0 0 0 4.342 11.461c3.284 3.702 7.967 5.066 12.733 5.066h44.134Z" fill="#008370"/>
        <path d="M65.832 40.38c4.85 0 7.708-.257 10.975-2.902 4.825-3.901 5.083-7.486 6.6-13.5 1.517-5.34.833-10.421 4.433-15.32 2.659-3.66 4.375-4.026 4.767-4.026H37.99c-15.058 0-20.1-.141-25.467 4.159-4.7 3.751-7.9 9.399-7.9 15.063a17.58 17.58 0 0 0 4.342 11.461c3.284 3.702 7.967 5.066 12.733 5.066h44.134Z" stroke="#008370" stroke-width=".111" stroke-linecap="round" stroke-linejoin="round"/>
        <path fill-rule="evenodd" clip-rule="evenodd" d="M75.374 19.48h.892a2.503 2.503 0 0 0 2.225-1.664l.258-.94a2.495 2.495 0 0 1 2.383-1.755h.95a1.41 1.41 0 0 1 1.475 1.15c.04.223.027.454-.041.672l-.184.682a1.387 1.387 0 0 0 1.392 1.813h.709a1.41 1.41 0 0 1 1.444 1.177c.037.224.019.454-.053.67l-.233.923a2.495 2.495 0 0 1-2.308 1.855h-.95a2.563 2.563 0 0 0-2.192 1.605l-.234 1.015a2.495 2.495 0 0 1-2.383 1.746h-.95a1.405 1.405 0 0 1-1.201-.53 1.397 1.397 0 0 1-.232-1.291l.175-.65a1.388 1.388 0 0 0-1.4-1.854h-.692a1.412 1.412 0 0 1-1.185-.562 1.404 1.404 0 0 1-.207-1.293l.226-.923a2.545 2.545 0 0 1 2.316-1.846Z" fill="#F28700"/>
        <path d="M75.374 19.48h.892a2.503 2.503 0 0 0 2.225-1.664l.258-.94a2.495 2.495 0 0 1 2.383-1.755h.95a1.41 1.41 0 0 1 1.475 1.15c.04.223.027.454-.041.672l-.184.682a1.387 1.387 0 0 0 1.392 1.813h.709a1.41 1.41 0 0 1 1.444 1.177c.037.224.019.454-.053.67l-.233.923a2.495 2.495 0 0 1-2.308 1.855h-.95a2.563 2.563 0 0 0-2.192 1.605l-.234 1.015a2.495 2.495 0 0 1-2.383 1.746h-.95a1.405 1.405 0 0 1-1.201-.53 1.397 1.397 0 0 1-.232-1.291l.175-.65a1.388 1.388 0 0 0-1.4-1.854h-.692a1.412 1.412 0 0 1-1.185-.562 1.404 1.404 0 0 1-.207-1.293l.226-.923a2.545 2.545 0 0 1 2.316-1.846Z" stroke="#F28700" stroke-width=".718"/>
        <path fill-rule="evenodd" clip-rule="evenodd" d="M215.447 56.21c-.283 0-.333.166-.458.34l-2.95 4.234c-.333.491-1.241 2.03-1.483 2.438h-.058c.408-1.905.192-.65.5-2.196l.916-4.4a.845.845 0 0 0 0-.225c0-.166-.074-.2-.233-.2h-1.525c-.25 0-.25.117-.283.233l-2.125 10.505c-.006.075-.006.15 0 .225 0 .158.083.2.234.2h1.449c.217 0 .284-.067.426-.283l3.158-4.633a16.93 16.93 0 0 0 1.266-2.105h.067a40.807 40.807 0 0 0-.408 1.714l-1.009 4.916c-.006.074-.006.15 0 .224 0 .158.084.2.242.2h1.524c.25 0 .25-.117.285-.233l2.116-10.538c.005-.075.005-.15 0-.225 0-.166-.083-.2-.241-.2l-1.41.009Zm-10.182 0c-.283 0-.334.166-.459.34l-2.949 4.234c-.334.491-1.25 2.03-1.484 2.438h-.058c.408-1.905.191-.65.5-2.196l.917-4.425c.008-.075.008-.15 0-.225 0-.166-.076-.2-.234-.2h-1.5c-.25 0-.25.117-.283.233l-2.15 10.53c-.007.075-.007.15 0 .225 0 .158.083.2.233.2h1.45c.217 0 .283-.067.425-.283l3.149-4.633c.48-.668.905-1.371 1.276-2.105h.066a42.436 42.436 0 0 0-.408 1.714l-1.008 4.882c-.006.075-.006.15 0 .225 0 .158.083.2.241.2h1.517c.259 0 .259-.117.283-.233l2.125-10.505c.005-.075.005-.15 0-.225 0-.166-.083-.2-.241-.2l-1.408.009Zm-13.05 4.932.649-3.177h.833a1.127 1.127 0 0 1 1.301 1.156c0 .557-.141 1.988-2.283 1.988l-.5.033Zm-.834-4.932c-.25 0-.25.116-.274.233l-2.125 10.496c-.008.075-.008.15 0 .225 0 .158.083.2.241.2h1.516c.259 0 .259-.117.284-.233l.834-4.226h.833c2.691 0 4.341-1.663 4.341-4.059 0-2.395-1.667-2.636-2.766-2.636h-2.884Zm-8.75 0c-.25 0-.25.116-.283.233l-2.116 10.496c-.008.075-.008.15 0 .225 0 .158.074.2.233.2h5.216c.25 0 .25-.117.284-.233l.267-1.306c0-.175-.201-.175-.267-.175h-3.375l.658-3.269h2.699c.209 0 .243 0 .285-.233l.241-1.189c0-.091.058-.291-.208-.291h-2.658l.566-2.745h3.083c.108 0 .217 0 .325-.216l.567-1.156a.523.523 0 0 0 .067-.192c0-.166-.159-.15-.268-.15h-5.316Zm-4.892 1.871h1.951c.108 0 .216 0 .333-.208l.625-1.322c.027-.056.049-.115.067-.175v-.05c0-.133-.176-.116-.275-.116h-6.425c-.283 0-.25.1-.283.233l-.267 1.214a1.156 1.156 0 0 0 0 .25c0 .19.158.174.267.174h2.007l-1.833 8.858a.652.652 0 0 0 0 .225c0 .158.076.2.234.2h1.524c.25 0 .25-.117.283-.233l1.792-9.05Zm-12.316-1.871c-.125 0-.316 0-.375.324l-2.158 10.497c-.059.316.133.332.25.332h1.432c.334 0 .351-.199.375-.332l.951-4.583h.908c.975 0 .992.607.992 1.098V65.5c0 .957.125 1.664.941 1.963.319.117.653.179.993.183.182 0 .34 0 .432-.24l.542-1.24c.109-.25 0-.308-.099-.333l-.443-.091c-.467-.1-.467-.524-.467-1.09v-1.364a1.574 1.574 0 0 0-1.007-1.663v-.092a2.314 2.314 0 0 0 1.616-1.58l.426-1.157c.25-.665.408-.923.916-1.056l.325-.083c.158 0 .233-.158.224-.341l-.107-1.156c0-.175-.192-.191-.301-.191-.484.03-.954.163-1.383.39a2.86 2.86 0 0 0-1.325 1.755l-.516 1.381c-.392 1.081-.884 1.223-1.542 1.223h-.767l.834-4.159c0-.091.091-.324-.25-.324l-1.417-.025Zm-6.667 6.72h-2.092l1.443-3.402c.171-.356.313-.726.424-1.106 0 .424 0 1.206.041 1.53l.184 2.978Zm-.425-6.72a.26.26 0 0 0-.283.15l-5.167 10.613a.362.362 0 0 0-.083.208.183.183 0 0 0 .208.183h1.625a.297.297 0 0 0 .196-.06.296.296 0 0 0 .113-.173l1.208-2.737h2.674l.109 2.787a.183.183 0 0 0 .209.183h1.666c.075 0 .284 0 .266-.233l-.924-10.647c0-.258-.133-.274-.291-.274h-1.526Zm-11.425 9.39.666-3.202h.976a1.182 1.182 0 0 1 .974.329c.128.125.224.277.283.445.06.168.08.347.059.524a1.97 1.97 0 0 1-.441 1.272 2.316 2.316 0 0 1-1.833.632h-.684Zm.117-9.39c-.258 0-.258.116-.284.233l-2.158 10.496c-.006.075-.006.15 0 .225 0 .158.083.2.241.2h2.801a4.362 4.362 0 0 0 3.484-1.29c.597-.78.916-1.737.908-2.72 0-1.122-.467-2.72-3.059-2.72h-.991l.533-2.553h3.283a.291.291 0 0 0 .333-.208l.559-1.322a.375.375 0 0 0 .066-.192c0-.166-.158-.15-.266-.15h-5.45Zm-8.525 9.715c-.926 0-1.016-.907-1.016-1.58.001-1.643.31-3.27.908-4.8.3-.732.932-1.905 1.983-1.905 1.05 0 .991 1.032.991 1.564a12.635 12.635 0 0 1-.882 4.816c-.318.757-.91 1.905-1.984 1.905Zm5-6.488c0-.882-.141-3.502-2.808-3.502-1.026 0-2.743.391-4.026 2.654a11.848 11.848 0 0 0-1.307 5.522c0 2.853 1.524 3.502 2.799 3.502a4.703 4.703 0 0 0 2.402-.753 4.706 4.706 0 0 0 1.665-1.884 12.754 12.754 0 0 0 1.259-5.54h.016Zm-13.25-1.472h1.616l-1.566 7.635h-2.717c.524-.772.941-1.612 1.241-2.495a28.822 28.822 0 0 0 1.134-3.826l.292-1.314Zm.791 9.398-.458 2.213V69.801c0 .05.083.2.25.2h1.384a.257.257 0 0 0 .192-.055.237.237 0 0 0 .064-.08.243.243 0 0 0 .027-.099l.758-3.742c.006-.075.006-.15 0-.225 0-.2-.133-.2-.225-.2h-.674l1.807-8.974c.006-.075.006-.15 0-.225 0-.166-.074-.2-.233-.2h-5.074c-.25 0-.25.117-.285.233l-.316 1.498a38.488 38.488 0 0 1-1.083 4.241 12.059 12.059 0 0 1-1.667 3.419h-.45c-.258 0-.275.083-.308.225l-.766 3.75V69.793c0 .05.074.2.25.2h1.382a.254.254 0 0 0 .194-.055.26.26 0 0 0 .09-.178l.483-2.404 4.658.008Zm-8-11.153c-.283 0-.333.166-.458.34l-2.958 4.234c-.325.491-1.242 2.03-1.475 2.438h-.059c.409-1.905.184-.65.5-2.196l.909-4.4a.705.705 0 0 0 0-.225c0-.166-.075-.2-.234-.2h-1.525c-.25 0-.25.117-.283.233l-2.117 10.505c-.006.075-.006.15 0 .225 0 .158.075.2.234.2h1.441c.225 0 .292-.067.434-.283l3.15-4.633c.478-.668.904-1.371 1.275-2.105h.058a62.349 62.349 0 0 0-.408 1.714l-1 4.916c-.006.074-.006.15 0 .224 0 .158.075.2.241.2h1.517c.25 0 .25-.117.284-.233l2.116-10.538c.005-.075.005-.15 0-.225 0-.166-.074-.2-.234-.2l-1.408.009Zm-14.166 2.587-1.059 5.14h-.216c-.509 0-1.184-.208-1.184-1.506a5.347 5.347 0 0 1 .834-2.986 1.735 1.735 0 0 1 1.4-.648h.225Zm.833 5.14 1.125-5.14h.217c1.158 0 1.175 1.172 1.175 1.48a5.642 5.642 0 0 1-.834 3.01 1.668 1.668 0 0 1-1.383.65h-.3Zm.05-8.376c-.425 0-.35.175-.375.341l-.217 1.264h-.541a3.757 3.757 0 0 0-3 1.373 6.645 6.645 0 0 0-1.259 3.909c0 2.603 1.859 3.185 3.05 3.136l-.3 1.447c-.075.4.125.35.267.35h1.383c.409 0 .367-.217.4-.35l.292-1.447h.542a3.772 3.772 0 0 0 3-1.364 6.85 6.85 0 0 0 1.241-3.91c0-2.57-1.816-3.185-3.041-3.127l.266-1.264c.075-.391-.141-.341-.258-.341l-1.45-.017Zm-8.092.649c-.283 0-.325.166-.45.34l-2.941 4.234c-.334.491-1.242 2.03-1.484 2.438h-.058c.408-1.905.183-.65.5-2.196l.908-4.4a.705.705 0 0 0 0-.225c0-.166-.075-.2-.233-.2h-1.492c-.25 0-.25.117-.283.233l-2.15 10.505c-.006.075-.006.15 0 .225 0 .158.083.2.233.2h1.45c.217 0 .284-.067.425-.283l3.15-4.633c.479-.668.905-1.371 1.275-2.105h.067a40.807 40.807 0 0 0-.408 1.714l-1.009 4.882c-.006.075-.006.15 0 .225 0 .158.084.2.234.2h1.525c.258 0 .258-.117.291-.233l2.117-10.505c.005-.075.005-.15 0-.225 0-.166-.075-.2-.233-.2l-1.434.009ZM87.231 65.6l.667-3.202h.975a1.177 1.177 0 0 1 1.316 1.297c.002.455-.154.896-.441 1.248a2.293 2.293 0 0 1-1.834.632l-.683.025Zm.117-9.39c-.25 0-.25.116-.284.233l-2.158 10.496v.225c0 .066.075.2.233.2h2.8a3.838 3.838 0 0 0 4.125-2.343 3.821 3.821 0 0 0 .275-1.666c0-1.123-.475-2.72-3.066-2.72h-.992l.533-2.554h3.284a.293.293 0 0 0 .333-.208l.567-1.322a.464.464 0 0 0 .058-.192c0-.166-.15-.15-.267-.15h-5.441Zm-12.417 0c-.25 0-.25.116-.283.233l-2.15 10.496c-.007.075-.007.15 0 .225 0 .158.075.2.233.2h5.183c.25 0 .25-.117.284-.233l.266-1.306c0-.175-.208-.175-.266-.175h-3.334l.659-3.269h2.7c.208 0 .241 0 .283-.233l.242-1.189c0-.091.058-.291-.209-.291h-2.708l.567-2.745h3.083c.108 0 .217 0 .325-.216l.567-1.156a.522.522 0 0 0 .066-.192c0-.166-.158-.15-.266-.15H74.93Zm-5 0c-.25 0-.25.116-.283.233l-2.15 10.496c-.007.075-.007.15 0 .225 0 .158.083.2.233.2h1.525c.258 0 .258-.117.283-.233l2.125-10.505c.006-.075.006-.15 0-.225 0-.166-.075-.2-.233-.2l-1.5.009Zm-8.125 9.39.692-3.202h.708c.442 0 1.592-.05 1.592 1.28a1.985 1.985 0 0 1-.475 1.265 2.31 2.31 0 0 1-1.842.632l-.675.025Zm.1-9.39c-.25 0-.25.116-.283.233L59.48 66.939c-.006.075-.006.15 0 .225 0 .158.083.2.242.2h2.775a3.824 3.824 0 0 0 3.171-.956 3.808 3.808 0 0 0 1.229-3.07 2.608 2.608 0 0 0-.734-1.946 3.11 3.11 0 0 0-2.325-.757h-1.008l.833-4.001c.006-.075.006-.15 0-.225 0-.166-.083-.2-.241-.2h-1.517Zm-9.167 9.565.675-3.327h.884c.483 0 1.35 0 1.35 1.264.022.504-.147.998-.475 1.38a2.175 2.175 0 0 1-1.792.608l-.642.075Zm1.009-4.883.608-3.01h.758c.442 0 1.267 0 1.267 1.073a2.01 2.01 0 0 1-.375 1.239 1.977 1.977 0 0 1-1.667.698h-.591Zm-.834-4.64c-.25 0-.25.116-.283.232L50.448 66.94c-.007.075-.007.15 0 .225 0 .158.083.2.233.2h2.583c1.267 0 2.717-.134 3.717-1.306.53-.617.825-1.4.833-2.213a2.334 2.334 0 0 0-1.458-2.329 5.005 5.005 0 0 0 1.142-.732 2.82 2.82 0 0 0 .925-2.112c0-2.396-2.267-2.446-2.892-2.446l-2.617.025Zm-4.9 0c-.283 0-.333.166-.458.34l-2.992 4.192c-.325.491-1.241 2.03-1.475 2.438h-.058c.408-1.905.183-.65.5-2.196l.908-4.4a.705.705 0 0 0 0-.225c0-.166-.075-.2-.233-.2h-1.492c-.25 0-.25.117-.283.233L40.273 66.94v.225c0 .066.075.2.233.2h1.442c.225 0 .283-.067.433-.283l3.158-4.633c.479-.668.905-1.371 1.275-2.105h.067a42.363 42.363 0 0 0-.417 1.714l-1 4.916c-.006.074-.006.15 0 .224 0 .158.075.2.242.2h1.517c.25 0 .25-.117.283-.233l2.125-10.538V56.4c0-.058-.075-.2-.233-.2l-1.384.05Zm-14.541 0c-.125 0-.309 0-.375.324l-.834 4.158h-.341c-1.092-.05-1.092-.615-1.092-1.272l-.117-1.38a2.125 2.125 0 0 0-.716-1.772 2.687 2.687 0 0 0-1.35-.375.309.309 0 0 0-.325.192l-.442 1.156c-.083.2 0 .332.092.34l.516.1c.242.05.417.233.475 1.04l.075 1.19a1.502 1.502 0 0 0 .834 1.513v.05a2.942 2.942 0 0 0-1.792 1.764l-.583 1.364c-.275.682-.392.973-.909 1.09l-.425.09a.265.265 0 0 0-.216.334l.2 1.28c0 .125 0 .242.283.242.62-.001 1.224-.19 1.733-.541a3.208 3.208 0 0 0 1-1.647l.834-1.955a1.37 1.37 0 0 1 1.366-1.09h.492l-.942 4.584c-.066.316.117.332.25.332h1.425c.334 0 .35-.199.375-.332l.95-4.583h.425c1.017 0 1.017.607 1.017 1.098V65.5a2.182 2.182 0 0 0 .442 1.664c.408.327.918.5 1.441.49a.393.393 0 0 0 .417-.24l.525-1.24c0-.066.133-.274-.092-.333l-.375-.066c-.358-.083-.458-.241-.475-1.09v-1.364a1.661 1.661 0 0 0-1-1.663v-.125a2.502 2.502 0 0 0 1.6-1.58l.425-1.157c.25-.665.409-.923.909-1.056l.333-.083c.158 0 .233-.158.217-.341l-.109-1.156c0-.175-.191-.191-.291-.191a3.335 3.335 0 0 0-1.392.407 2.87 2.87 0 0 0-1.317 1.739l-.516 1.38c-.342.932-.742 1.223-1.542 1.223h-.283l.833-4.159c0-.091.092-.324-.25-.324l-1.383.016Z" fill="#008370"/>
        <path fill-rule="evenodd" clip-rule="evenodd" d="M181.375 11.153c2.641-.349 5.317-.349 7.958 0L187.3 24.711a1.584 1.584 0 0 0 .95 1.787c.227.094.472.134.717.118 1.375 0 3.649-1.123 3.899-2.654l1.917-12.809c2.638-.349 5.311-.349 7.95 0l-3.334 22.358a31.08 31.08 0 0 1-7.958 0l.217-1.414a12.462 12.462 0 0 1-5.766 1.763c-8.634 0-7-6.388-6.55-9.15.75-4.49 1.358-9.049 2.033-13.557Zm-2.976 0a19.446 19.446 0 0 1-.899 6.305h-5l-2.392 16.053a31.089 31.089 0 0 1-7.959 0l2.401-16.053h-4.634a19.706 19.706 0 0 1 .917-6.305h17.566Zm-55.549 0h13.766l-.932 6.305h-7.25l-.234 1.547h6.666l-.833 5.706h-6.667L127 27.206h7.25l-.95 6.313h-12.909c-2.15 0-2.083-1.53-1.958-2.312l2.642-17.741c.116-.807.25-2.313 1.775-2.313Zm28.816-.69a12.692 12.692 0 0 1 5.834 1.248c.148.226.238.486.258.756a7.619 7.619 0 0 1 0 2.047 9.304 9.304 0 0 1-.892 3.152c-.133.233-.608.832-.891.549a5.19 5.19 0 0 0-3.475-1.264 6.203 6.203 0 0 0-4.149 1.387 6.181 6.181 0 0 0-2.193 3.778c-.474 2.844.708 5.165 4.616 5.165a6.967 6.967 0 0 0 4.042-1.223.479.479 0 0 1 .276 0 .78.78 0 0 1 .291.6 14.915 14.915 0 0 1-.609 5.173 2.501 2.501 0 0 1-.741.931 14.281 14.281 0 0 1-6.2 1.406c-6.667 0-11.075-4.558-10-11.87a13.72 13.72 0 0 1 4.67-8.532 13.768 13.768 0 0 1 9.163-3.303Zm-76.291 9.016h.891a2.503 2.503 0 0 0 2.225-1.663l.259-.94a2.496 2.496 0 0 1 2.383-1.755h.95a1.411 1.411 0 0 1 1.474 1.149c.041.224.027.455-.04.672l-.184.682a1.388 1.388 0 0 0 1.392 1.814h.708a1.41 1.41 0 0 1 1.445 1.177c.037.224.018.453-.053.67l-.234.922a2.494 2.494 0 0 1-2.308 1.855h-.95a2.56 2.56 0 0 0-2.192 1.605l-.233 1.015a2.494 2.494 0 0 1-2.383 1.747h-.95a1.405 1.405 0 0 1-1.202-.53 1.396 1.396 0 0 1-.232-1.292l.175-.648a1.386 1.386 0 0 0-.73-1.732 1.393 1.393 0 0 0-.67-.123h-.691a1.412 1.412 0 0 1-1.185-.562 1.404 1.404 0 0 1-.207-1.293l.225-.923a2.545 2.545 0 0 1 2.317-1.847Zm6.158-9.016c8.55 0 11.458 5.964 10.367 12.518-1.092 6.554-6.742 11.187-14.334 11.187-6.916 0-11.466-4.558-10.316-11.87 1.15-7.31 7.366-11.835 14.283-11.835Zm24.108 5.947h1.759a1.546 1.546 0 0 1 1.166.59 1.534 1.534 0 0 1 .292 1.273 2.121 2.121 0 0 1-1.532 1.82c-.271.077-.555.1-.835.068h-1.408l.558-3.751Zm-1.133 8.076h1.975a1.611 1.611 0 0 1 1.621 1.15c.068.228.083.47.046.705-.209 1.165-1.067 1.888-2.659 1.888h-1.583l.6-3.743Zm-6.033-13.308h11.883c4.775 0 6.142 2.304 6.117 4.4-.025 2.096-.909 4.159-4.025 5.157 3.6 1.364 4.341 3.676 3.741 6.438-.891 4.05-4.391 6.363-9.166 6.363H95.141l3.334-22.383v.025Zm-55.259 0c2.642-.349 5.318-.349 7.959 0l-2.009 13.533a1.587 1.587 0 0 0 .95 1.787c.227.094.472.134.717.118 1.375 0 3.65-1.123 3.9-2.654l1.933-12.809c2.642-.349 5.318-.349 7.959 0L61.29 33.511a31.083 31.083 0 0 1-7.958 0l.217-1.414a12.467 12.467 0 0 1-5.767 1.763c-8.642 0-7-6.388-6.55-9.15.7-4.49 1.308-9.049 1.983-13.557v.025ZM27.308 24.86h1.2c.775 0 1.775.7 1.6 1.622a2.162 2.162 0 0 1-2.367 1.747H26.8l.508-3.369Zm-5.7 8.65h7.35c4.783 0 8.108-2.311 9.05-7.01.783-3.885-1.192-7.08-6.558-7.096h-3.334l.292-1.946h8.9c.65-2.037.966-4.167.933-6.305h-16.85c-1.11 7.453-2.222 14.905-3.333 22.358h3.55Zm185.166-22.357c2.642-.349 5.318-.349 7.959 0l-1.174 7.852h5.458l1.174-7.852c2.642-.349 5.317-.349 7.958 0-1.11 7.453-2.222 14.905-3.333 22.358-2.639.34-5.31.34-7.95 0l1.309-8.8h-5.458l-1.309 8.8a31.08 31.08 0 0 1-7.958 0c1.111-7.453 2.219-14.905 3.324-22.358Z" fill="#fff"/>
        <path fill-rule="evenodd" clip-rule="evenodd" d="M243.849 5.19h1.443c.245.01.491-.024.724-.1a.754.754 0 0 0 .392-.3.834.834 0 0 0 .134-.457.74.74 0 0 0-.259-.59 1.21 1.21 0 0 0-.833-.233h-1.608l.007 1.68Zm-.674 2.828V2.953h2.258c.346-.016.694.029 1.025.133.237.095.435.264.567.482.139.23.212.496.208.765.008.337-.118.663-.349.907a1.753 1.753 0 0 1-1.076.474c.144.064.279.148.4.25.214.2.401.427.558.673l.884 1.381h-.834l-.675-1.056c-.191-.3-.358-.541-.483-.699a1.672 1.672 0 0 0-.342-.341 1.103 1.103 0 0 0-.307-.133 1.925 1.925 0 0 0-.368 0h-.783v2.254l-.683-.025Z" fill="#F28700"/>
        <path fill-rule="evenodd" clip-rule="evenodd" d="M248.103 2.387a4.33 4.33 0 0 0-7.191 1.815 4.307 4.307 0 0 0 .147 2.903 4.321 4.321 0 0 0 4.839 2.576 4.328 4.328 0 0 0 2.499-1.495 4.313 4.313 0 0 0-.294-5.799Zm-3.1-1.896a5.002 5.002 0 0 1 4.915 4.013 4.981 4.981 0 0 1-.493 3.33 4.999 4.999 0 0 1-5.868 2.42 4.985 4.985 0 0 1-2.063-8.316 5.007 5.007 0 0 1 3.509-1.447Z" fill="#F28700"/>
    </g>
</svg>
