<svg width="15" height="15" fill="none" xmlns="http://www.w3.org/2000/svg">
    <path d="M8.675 3.676a3.353 3.353 0 0 1 2.647 2.642M8.675 1c1.36.15 2.628.759 3.596 1.724a6.016 6.016 0 0 1 1.732 3.587" stroke="#F28700" stroke-width=".84" stroke-linecap="round" stroke-linejoin="round"/>
    <path d="M13.33 11.65v2.007a1.336 1.336 0 0 1-1.462 1.338 13.28 13.28 0 0 1-5.784-2.054 13.057 13.057 0 0 1-4.021-4.014 13.222 13.222 0 0 1-2.058-5.8A1.335 1.335 0 0 1 1.34 1.67h2.01a1.342 1.342 0 0 1 1.341 1.15c.085.643.243 1.273.47 1.88a1.336 1.336 0 0 1-.302 1.412l-.851.85a10.714 10.714 0 0 0 4.021 4.013l.851-.85a1.341 1.341 0 0 1 1.415-.3c.608.226 1.24.383 1.883.468a1.341 1.341 0 0 1 1.153 1.358Z" fill="#F28700"/>
</svg>
