<svg width="40" height="32" fill="none" xmlns="http://www.w3.org/2000/svg">
    <path fill-rule="evenodd" clip-rule="evenodd" d="M2.75 13.776C13.487 9.26 20.647 6.283 24.23 4.844 34.458.737 36.584.024 37.97 0c.304-.005.985.068 1.426.414.373.292.476.686.525.963.049.276.11.907.061 1.4-.554 5.621-2.953 19.265-4.173 25.562-.516 2.664-1.533 3.558-2.517 3.645-2.139.19-3.763-1.364-5.835-2.675-3.241-2.052-5.073-3.329-8.22-5.33-3.636-2.314-1.278-3.585.794-5.663.542-.544 9.966-8.819 10.149-9.57.023-.093.044-.443-.171-.628-.216-.185-.534-.122-.763-.071-.325.071-5.504 3.375-15.536 9.913-1.47.974-2.802 1.449-3.995 1.424-1.315-.028-3.844-.718-5.725-1.308-2.307-.724-4.14-1.107-3.98-2.336.083-.64.996-1.295 2.74-1.964Z" fill="#F28700"/>
</svg>
