<svg width="40" height="27" fill="none" xmlns="http://www.w3.org/2000/svg">
    <path d="M39.156 4.163a4.715 4.715 0 0 0-1.292-2.13 5.064 5.064 0 0 0-2.236-1.23C32.514 0 20 0 20 0S7.486 0 4.372.803a5.063 5.063 0 0 0-2.236 1.23 4.715 4.715 0 0 0-1.292 2.13A46.883 46.883 0 0 0 0 13.333c-.02 3.075.261 6.146.843 9.17.227.806.673 1.54 1.292 2.13.62.59 1.39 1.014 2.236 1.23 3.114.804 15.628.804 15.628.804s12.514 0 15.628-.803a5.063 5.063 0 0 0 2.236-1.231 4.715 4.715 0 0 0 1.292-2.13c.582-3.024.864-6.095.843-9.17a46.877 46.877 0 0 0-.843-9.17ZM16 19.048V7.619l10.385 5.714L16 19.048Z" fill="#F28700"/>
</svg>
