<svg width="28" height="28" viewBox="0 0 28 28" fill="none" xmlns="http://www.w3.org/2000/svg">
<path d="M14.4828 0.482759C14.4828 0.216138 14.2666 0 14 0C13.7334 0 13.5172 0.216138 13.5172 0.482759V13.5172H0.482759C0.216138 13.5172 0 13.7334 0 14C0 14.2666 0.216138 14.4828 0.482759 14.4828H13.5172V27.5172C13.5172 27.7839 13.7334 28 14 28C14.2666 28 14.4828 27.7839 14.4828 27.5172V14.4828H27.5172C27.7839 14.4828 28 14.2666 28 14C28 13.7334 27.7839 13.5172 27.5172 13.5172H14.4828V0.482759Z" fill="white"/>
</svg>
