<?xml version="1.0" encoding="utf-8"?><svg viewBox="0 0 26 26" xmlns="http://www.w3.org/2000/svg" xmlns:xlink="http://www.w3.org/1999/xlink"><style>:root>svg{display:none}:root>svg:target{display:block}</style><svg viewBox="0 0 12 12" id="icon-arrow" xmlns="http://www.w3.org/2000/svg"><path fill-rule="evenodd" clip-rule="evenodd" d="M.646.646a.5.5 0 01.708 0L10.5 9.793V1a.5.5 0 011 0v10.5H1a.5.5 0 010-1h8.793L.646 1.354a.5.5 0 010-.708z"/></svg><svg viewBox="0 0 10 10" id="icon-arrow-right" xmlns="http://www.w3.org/2000/svg"><path fill-rule="evenodd" clip-rule="evenodd" d="M.257 5a.5.5 0 01.5-.5h7.279l-3.39-3.39a.5.5 0 11.708-.706L9.95 5 5.354 9.596a.5.5 0 11-.708-.707L8.036 5.5H.757a.5.5 0 01-.5-.5z"/></svg><svg viewBox="0 0 26 26" id="icon-dot" xmlns="http://www.w3.org/2000/svg"><circle cx="13" cy="13" r="5"/><circle cx="13" cy="13" r="12.5"/></svg></svg>