<?xml version="1.0" encoding="utf-8"?><svg viewBox="0 0 28 26" xmlns="http://www.w3.org/2000/svg" xmlns:xlink="http://www.w3.org/1999/xlink"><style>:root>svg{display:none}:root>svg:target{display:block}</style><svg viewBox="0 0 12 12" id="icon-arrow" xmlns="http://www.w3.org/2000/svg"><path fill-rule="evenodd" clip-rule="evenodd" d="M.646.646a.5.5 0 01.708 0L10.5 9.793V1a.5.5 0 011 0v10.5H1a.5.5 0 010-1h8.793L.646 1.354a.5.5 0 010-.708z"/></svg><svg viewBox="0 0 10 10" id="icon-arrow-right" xmlns="http://www.w3.org/2000/svg"><path fill-rule="evenodd" clip-rule="evenodd" d="M.257 5a.5.5 0 01.5-.5h7.279l-3.39-3.39a.5.5 0 11.708-.706L9.95 5 5.354 9.596a.5.5 0 11-.708-.707L8.036 5.5H.757a.5.5 0 01-.5-.5z"/></svg><svg viewBox="0 0 28 17" id="icon-burger" xmlns="http://www.w3.org/2000/svg"><path fill-rule="evenodd" clip-rule="evenodd" d="M28 1H0V0h28v1zm0 8H0V8h28v1zm0 8H0v-1h28v1z"/></svg><svg viewBox="0 0 18 20" id="icon-calendar" xmlns="http://www.w3.org/2000/svg"><path d="M5.445 1.111v2.667m7.11-2.667v2.667M1.445 7.413h15.11M17 6.889v7.556c0 2.666-1.333 4.444-4.444 4.444H5.444C2.334 18.889 1 17.111 1 14.445V6.889c0-2.667 1.333-4.444 4.444-4.444h7.112c3.11 0 4.444 1.777 4.444 4.444zM12.285 11.511h.008m-.008 2.667h.008m-3.296-2.667h.008m-.008 2.667h.008m-3.299-2.667h.008m-.008 2.667h.008"/></svg><svg viewBox="0 0 18 18" id="icon-child" xmlns="http://www.w3.org/2000/svg"><path d="M5.958 4.173a6.187 6.187 0 103.925-.735M10.688 3.25v.5a.5.5 0 00.4-.8l-.4.3zm-2 4v.5a.5.5 0 00.4-.8l-.4.3zm0-1.5a2 2 0 012-2v-1a3 3 0 00-3 3h1zm.4 1.2a1.989 1.989 0 01-.4-1.2h-1c0 .675.223 1.299.6 1.8l.8-.6zm-.4-.2v1-1zm0 0a2 2 0 01-2-2h-1a3 3 0 003 3v-1zm-2-2a2 2 0 012-2v-1a3 3 0 00-3 3h1zm2-2c.653 0 1.234.313 1.6.8l.8-.6a2.996 2.996 0 00-2.4-1.2v1z"/><path d="M10.688 9s.562-.563 1.406-.563c.844 0 1.406.563 1.406.563M5.063 9s.562-.563 1.406-.563c.843 0 1.406.563 1.406.563m2.813 3.375s-.563.563-1.407.563c-.844 0-1.406-.563-1.406-.563"/><rect x="15.188" y="7.875" width="2.025" height="3.375" rx="1.012"/><rect x=".787" y="7.875" width="2.025" height="3.038" rx="1.012"/></svg><svg viewBox="0 0 18 18" id="icon-clock" xmlns="http://www.w3.org/2000/svg"><path d="M9 1.5C4.867 1.5 1.5 4.867 1.5 9s3.367 7.5 7.5 7.5 7.5-3.367 7.5-7.5S13.133 1.5 9 1.5zm3.262 10.178a.56.56 0 01-.772.194l-2.325-1.387c-.577-.345-1.005-1.102-1.005-1.77V5.64c0-.308.255-.563.563-.563.307 0 .562.255.562.563v3.075c0 .27.225.668.457.803l2.325 1.387c.27.158.36.503.195.773z"/></svg><svg viewBox="0 0 14 14" id="icon-close" xmlns="http://www.w3.org/2000/svg"><path fill-rule="evenodd" clip-rule="evenodd" d="M.293.293a1 1 0 011.414 0L7 5.586 12.293.293a1 1 0 111.414 1.414L8.414 7l5.293 5.293a1 1 0 01-1.414 1.414L7 8.414l-5.293 5.293a1 1 0 01-1.414-1.414L5.586 7 .293 1.707a1 1 0 010-1.414z"/></svg><svg viewBox="0 0 26 26" id="icon-dot" xmlns="http://www.w3.org/2000/svg"><circle cx="13" cy="13" r="5"/><circle cx="13" cy="13" r="12.5"/></svg><svg viewBox="0 0 18 18" id="icon-phone" xmlns="http://www.w3.org/2000/svg"><path d="M13.215 8.063a.578.578 0 01-.578-.578c0-.277-.277-.855-.742-1.357-.457-.488-.96-.773-1.38-.773a.578.578 0 010-1.155c.75 0 1.537.405 2.227 1.133.645.682 1.058 1.53 1.058 2.145a.586.586 0 01-.585.585zm2.707 0a.578.578 0 01-.577-.578 4.828 4.828 0 00-4.823-4.822.578.578 0 01-.577-.578c0-.315.255-.585.57-.585 3.3 0 5.985 2.685 5.985 5.985a.583.583 0 01-.578.577zM7.2 13.8l2.453-2.453S8.58 10.433 8.28 10.14c-.037-.038-.077-.075-.116-.113a6.672 6.672 0 01-.117-.112c-.39-.397-.75-.795-1.087-1.185-.33-.39-.563-.713-.697-.96l-.03-.075a1.17 1.17 0 01-.03-.075.68.68 0 01-.023-.173c0-.12.038-.217.12-.3l.57-.592c.18-.18.322-.36.42-.532a1.02 1.02 0 00.157-.533c0-.143-.037-.3-.104-.458a2.567 2.567 0 00-.3-.524l-1.74-2.453a1.223 1.223 0 00-.503-.42 1.41 1.41 0 00-.607-.135c-.555 0-1.08.232-1.56.705a3.452 3.452 0 00-.863 1.252c-.18.45-.27.938-.27 1.448 0 .78.18 1.598.533 2.452.36.848.855 1.703 1.47 2.558a21.31 21.31 0 002.092 2.453l.124.12c.041.039.082.078.123.12A68 68 0 007.2 13.8z"/><path d="M16.365 14.385c.075-.21.113-.428.113-.637 0-.21-.045-.398-.12-.585a1.138 1.138 0 00-.413-.48l-2.482-1.763a2.9 2.9 0 00-.525-.293 1.197 1.197 0 00-.458-.097.999.999 0 00-.532.158c-.173.09-.353.232-.54.42l-.57.562a.413.413 0 01-.308.127.518.518 0 01-.255-.06l-.067-.03a4.214 4.214 0 01-.555-.36L7.2 13.8c.278.232.57.45.863.667a13.173 13.173 0 002.58 1.486c.862.367 1.68.547 2.445.547a3.789 3.789 0 001.45-.281c.005-.002.008-.004.012-.004.458-.188.863-.48 1.23-.885a3.067 3.067 0 00.585-.945z"/></svg><svg viewBox="0 0 18 18" id="icon-restore" xmlns="http://www.w3.org/2000/svg"><path d="M16.992 1.341v3.996h-3.996M1.008 16.659v-3.996h3.996"/><path d="M.675 9a8.325 8.325 0 0115.06-4.893M17.325 9a8.326 8.326 0 01-15.06 4.893M1.126 12.825h1.125v1.125H1.126zm14.626-8.888h1.125v1.125h-1.125z"/></svg><svg viewBox="0 0 18 18" id="icon-shield" xmlns="http://www.w3.org/2000/svg"><path d="M7.791 1.186L3.8 2.69c-.92.344-1.673 1.432-1.673 2.409v5.944c0 .945.625 2.185 1.385 2.753l3.44 2.568c1.128.848 2.984.848 4.113 0l3.44-2.568c.76-.568 1.384-1.808 1.384-2.753V5.1c0-.985-.752-2.073-1.672-2.417l-3.992-1.496c-.68-.248-1.769-.248-2.433 0z"/><path d="M6.64 8.9l1.288 1.287 3.44-3.44"/></svg><svg viewBox="0 0 27 8" id="icon-slider-arr" xmlns="http://www.w3.org/2000/svg"><path d="M26.354 3.646a.5.5 0 010 .708l-3.182 3.182a.5.5 0 11-.707-.708L25.293 4l-2.828-2.828a.5.5 0 11.707-.708l3.182 3.182zM0 3.5h26v1H0v-1z"/></svg></svg>